<?xml version="1.0" standalone="yes"?>
<svg xmlns="http://www.w3.org/2000/svg" width="214" height="120">
<path style="fill:#ffffff; stroke:none;" d="M0 0L0 120L2 120L2 4L212 4L212 120L214 120L214 0L0 0z"/>
<path style="fill:#f0f8fa; stroke:none;" d="M2 4L2 10L8 5C5.9479 4.12576 4.25282 4.04721 2 4z"/>
<path style="fill:#eeb3c6; stroke:none;" d="M8 4C12.969 6.0851 19.6497 5 25 5L61 5C56.0309 2.91489 49.3503 4 44 4L8 4z"/>
<path style="fill:#f8d8e3; stroke:none;" d="M61.6667 4.33334C61.2222 4.7778 62.2778 4.72221 62.3333 4.66666C62.7777 4.22227 61.7223 4.27775 61.6667 4.33334z"/>
<path style="fill:#f0f8fa; stroke:none;" d="M63 4L79 24C77.3696 25.9997 76.6617 27.5022 76 30C88.6682 30.1063 91.2408 39.3905 97.0887 49.0039C103.094 58.8752 109.823 68.3462 116.169 78C120.351 84.3619 127.864 93.2006 117.985 98.3071C109.063 102.918 105.37 91.3557 101.584 86C94.2073 75.5642 87.5444 64.9868 81.0664 54.0394C76.0131 45.4997 69.9572 41.0348 75 31C71.9911 31.55 68.9783 32.2762 66.0903 30.8318C61.7534 28.6627 59.4483 23.102 54.7106 21.6497C52.3673 20.9313 49.4428 21.4286 47 21.2461C38.056 20.5782 28.9673 21 20 21C16.3417 21 11.64 21.7554 8.1713 20.4012C5.89138 19.5112 3.95681 17.4276 2 16L2 51C8.12805 48.4034 14.4561 49 21 49L51 49C54.0343 49 66.9544 47.2893 66.0787 52.9105C65.3201 57.7802 54.3409 55.9328 51 56.0147C34.7093 56.4138 18.3285 56.045 2 56L2 120L119 120L118 106C121.804 104.352 124.813 100.918 129.004 100.231C141.103 98.2496 144.703 110.827 143 120L161 120C160.549 116.429 159.481 112.579 160.894 109.09C165.326 98.1443 178.418 97.8259 184.347 107.286C186.799 111.199 185.789 115.75 185 120L212 120L212 54C209.657 55.3892 206.891 57.673 204 57.4545C198.142 57.0115 188.417 43.7225 188.916 38.0008C189.28 33.8293 194.097 29.6995 198.282 31.4923C201.16 32.7255 203.259 35.5947 205.101 38.0008C207.294 40.8659 209.247 43.8536 211 47C212.769 42.7849 212 37.5355 212 33L212 4L63 4z"/>
<path style="fill:#d895a3; stroke:none;" d="M6 7L9 6C7.2218 5.04455 6.97859 5.23376 6 7z"/>
<path style="fill:#bc536b; stroke:none;" d="M9 5C13.9691 7.08511 20.6497 6 26 6L61 6C56.0309 3.91489 49.3503 5 44 5L9 5z"/>
<path style="fill:#d7879a; stroke:none;" d="M61.6667 5.33334C61.2222 5.77779 62.2778 5.72221 62.3333 5.66666C62.7777 5.22225 61.7222 5.27776 61.6667 5.33334z"/>
<path style="fill:#f5cad5; stroke:none;" d="M63 5C64.2228 6.19518 64.42 6.31642 66 7C64.7772 5.80481 64.58 5.68358 63 5z"/>
<path style="fill:#efb1c0; stroke:none;" d="M5 6L6 7L5 6z"/>
<path style="fill:#9d1832; stroke:none;" d="M7 6C11.4687 7.87516 17.1913 7 22 7L47 7C51.1332 7 56.0348 6.34405 59.9606 7.89275C64.0682 9.51313 67.2825 13.6791 70 17C71.1951 11.1554 64.2754 6.37457 59 6.04398C41.8101 4.96679 24.2266 6 7 6z"/>
<path style="fill:#b96073; stroke:none;" d="M63 6L64 7L63 6z"/>
<path style="fill:#efa9b9; stroke:none;" d="M4 7L5 8L4 7z"/>
<path style="fill:#c35b72; stroke:none;" d="M5 7L6 8L5 7z"/>
<path style="fill:#af193a; stroke:none;" d="M4 13C5.61122 11.208 6.85199 10.0799 9 9C5.31506 6.97172 4.28215 9.46779 4 13z"/>
<path style="fill:#af0d23; stroke:none;" d="M7 7C11.6843 10.2002 18.5193 9 24 9C36.9883 9 50.0378 8.55075 63 9C57.8181 5.89591 50.8516 7 45 7L7 7z"/>
<path style="fill:#d68e9a; stroke:none;" d="M65 7L66 8L65 7z"/>
<path style="fill:#d38e9b; stroke:none;" d="M3.33333 8.66666C3.27776 8.72224 3.22223 9.77778 3.66667 9.33334C3.72219 9.27781 3.7778 8.2222 3.33333 8.66666z"/>
<path style="fill:#b90623; stroke:none;" d="M5 14C6.87815 13.8241 8.19943 13.5618 10 13L9 19C19.4186 17.0658 30.4331 18 41 18C45.9503 18 52.1618 17.0115 56.9421 18.4336C60.662 19.5403 61.2231 23.1677 63.5679 25.7724C65.9125 28.3769 68.6905 28.8187 72 29C72.3358 26.2289 73.8959 22.8402 73.1327 20.0895C71.9982 16.0001 65.7541 10.5393 61.8302 9.22531C57.6195 7.81522 53.295 8.88177 49 8.98534C41.6751 9.16196 34.3271 9 27 9C20.6579 9 6.34702 5.92846 5 14z"/>
<path style="fill:#db9ca4; stroke:none;" d="M66 8L67 9L66 8z"/>
<path style="fill:#fadbe0; stroke:none;" d="M67 9C67.5451 10.6352 67.3649 10.4549 69 11L69 9L67 9z"/>
<path style="fill:#eebbc6; stroke:none;" d="M2 10C2.0519 12.5283 2.27761 14.5819 3 17C3.61289 14.4222 3.14542 12.3898 2 10z"/>
<path style="fill:#b35265; stroke:none;" d="M3 10L3 15C3.82989 12.9695 3.8299 12.0305 3 10z"/>
<path style="fill:#b7626d; stroke:none;" d="M67 10L68 11L67 10z"/>
<path style="fill:#c36a7b; stroke:none;" d="M68 11L69 12L68 11z"/>
<path style="fill:#ce7489; stroke:none;" d="M69 12L70 13L69 12z"/>
<path style="fill:#892030; stroke:none;" d="M4 13C4.49689 16.2071 5.15041 17.4436 8 19C6.87848 16.6566 5.77562 14.8892 4 13z"/>
<path style="fill:#a40f28; stroke:none;" d="M9 13L5 14L8 19C9.49501 16.8149 9.88875 15.508 9 13z"/>
<path style="fill:#d48094; stroke:none;" d="M70 13L71 14L70 13z"/>
<path style="fill:#d88f9e; stroke:none;" d="M71 14L72 15L71 14z"/>
<path style="fill:#982b36; stroke:none;" d="M71 15C71.6836 16.58 71.8048 16.7772 73 18C72.3164 16.42 72.1952 16.2228 71 15z"/>
<path style="fill:#de9da5; stroke:none;" d="M72 15L73 16L72 15z"/>
<path style="fill:#e6adb1; stroke:none;" d="M73 16L74 17L73 16z"/>
<path style="fill:#c39297; stroke:none;" d="M4 17L5 18L4 17z"/>
<path style="fill:#b7656d; stroke:none;" d="M73 17L74 18L73 17z"/>
<path style="fill:#e6b0b6; stroke:none;" d="M74 17L75 18L74 17z"/>
<path style="fill:#bd8389; stroke:none;" d="M5 18L6 19L5 18z"/>
<path style="fill:#a70f26; stroke:none;" d="M11 18C14.9586 19.6611 19.7397 19 24 19C35.572 19 50.6476 16.305 61 22C59.1264 16.6718 52.7591 18 48 18L11 18z"/>
<path style="fill:#a5172e; stroke:none;" d="M73 18C73.2021 21.1658 72.5731 23.8991 72 27C74.7475 24.0648 75.4767 21.325 73 18z"/>
<path style="fill:#c2737e; stroke:none;" d="M74 18L75 19L74 18z"/>
<path style="fill:#f2c1ca; stroke:none;" d="M75 18L76 19L75 18z"/>
<path style="fill:#e3a1ab; stroke:none;" d="M6 19L7 20L6 19z"/>
<path style="fill:#b33954; stroke:none;" d="M7.66667 19.3333C7.22225 19.7777 8.27776 19.7222 8.33333 19.6667C8.77779 19.2222 7.72222 19.2778 7.66667 19.3333z"/>
<path style="fill:#9a1c2d; stroke:none;" d="M9 19C12.9586 20.6611 17.7397 20 22 20C31.971 20 43.1412 18.5785 52.9853 20.1481C57.8932 20.9307 59.7131 25.5797 63.4282 28.2577C66.235 30.281 69.714 29.9906 73 30C70.3681 28.8053 67.504 28.4431 65.1698 26.5664C62.3461 24.2961 60.5406 20.9257 56.9961 19.6034C52.6452 17.9802 46.5816 19 42 19L9 19z"/>
<path style="fill:#b6546d; stroke:none;" d="M75.3333 19.6667C75.2778 19.7222 75.2222 20.7778 75.6667 20.3333C75.7222 20.2778 75.7778 19.2222 75.3333 19.6667z"/>
<path style="fill:#f5bed1; stroke:none;" d="M76 19L76 22C76.6961 20.4463 76.6961 20.5537 76 19z"/>
<path style="fill:#f0bec9; stroke:none;" d="M6.66667 20.3333C6.2222 20.7778 7.27779 20.7222 7.33333 20.6667C7.77775 20.2223 6.72223 20.2778 6.66667 20.3333z"/>
<path style="fill:#db95a2; stroke:none;" d="M8 20C12.7199 21.9806 18.9198 21 24 21L56 21C51.2801 19.0194 45.0802 20 40 20L8 20z"/>
<path style="fill:#b35d65; stroke:none;" d="M56 20L57 21L56 20z"/>
<path style="fill:#fcddea; stroke:none;" d="M48 21C49.5061 21.683 50.3148 21.8259 52 22C50.494 21.317 49.6852 21.1741 48 21z"/>
<path style="fill:#f7d4d7; stroke:none;" d="M56 21C56.6836 22.58 56.8048 22.7772 58 24C57.3164 22.42 57.1952 22.2228 56 21z"/>
<path style="fill:#aa6167; stroke:none;" d="M57 21L58 22L57 21z"/>
<path style="fill:#a83350; stroke:none;" d="M75 21L75 27C75.9511 24.7147 75.9511 23.2853 75 21z"/>
<path style="fill:#d3829a; stroke:none;" d="M76 22L76 25C76.6961 23.4463 76.6961 23.5537 76 22z"/>
<path style="fill:#f9d3e6; stroke:none;" d="M77 22C77.4057 24.0924 77.2167 24.0198 79 25C78.3087 23.6116 78.0154 23.1393 77 22z"/>
<path style="fill:#d5939a; stroke:none;" d="M58 23L59 24L58 23z"/>
<path style="fill:#d48c96; stroke:none;" d="M59 24L60 25L59 24z"/>
<path style="fill:#872433; stroke:none;" d="M74 24L72 29C74.2762 27.5466 74.8733 26.6121 74 24z"/>
<path style="fill:#c67c87; stroke:none;" d="M60 25L61 26L60 25z"/>
<path style="fill:#f2c9cc; stroke:none;" d="M76 25L76 28C76.6961 26.4463 76.6961 26.5537 76 25z"/>
<path style="fill:#ecbec6; stroke:none;" d="M60 26L61 27L60 26z"/>
<path style="fill:#bc7882; stroke:none;" d="M61 26L62 27L61 26z"/>
<path style="fill:#b56871; stroke:none;" d="M62 27L63 28L62 27z"/>
<path style="fill:#cca2a2; stroke:none;" d="M75 27L76 28L75 27z"/>
<path style="fill:#b37f83; stroke:none;" d="M74 28L75 29L74 28z"/>
<path style="fill:#fddce1; stroke:none;" d="M75 28L71 31C75.0937 32.3939 79.7104 31.0862 84 31C81.0156 29.732 77.9208 29.625 75 28z"/>
<path style="fill:#e3aab0; stroke:none;" d="M63 29L64 30L63 29z"/>
<path style="fill:#bd6e76; stroke:none;" d="M64 29L65 30L64 29z"/>
<path style="fill:#cc8c95; stroke:none;" d="M73 29L74 30L73 29z"/>
<path style="fill:#fbf0dc; stroke:none;" d="M103 29C105.894 30.8749 108.792 32.7407 112 34C109.734 30.3251 107.252 29.2861 103 29z"/>
<path style="fill:#feeeda; stroke:none;" d="M129 29L129 31L132 31L132 29L129 29z"/>
<path style="fill:#fff0dd; stroke:none;" d="M173 29C174.693 30.0624 176.04 30.5196 178 31C176.212 29.5785 175.294 29.3026 173 29z"/>
<path style="fill:#d797a2; stroke:none;" d="M64.6667 30.3333C64.2222 30.7778 65.2778 30.7222 65.3333 30.6667C65.7778 30.2222 64.7222 30.2778 64.6667 30.3333z"/>
<path style="fill:#a13858; stroke:none;" d="M66 30C67.769 30.7789 69.0359 30.9124 71 31C69.231 30.2211 67.9641 30.0876 66 30z"/>
<path style="fill:#c8748a; stroke:none;" d="M71 30L72 31L71 30z"/>
<path style="fill:#fae1c2; stroke:none;" d="M101 30C103.052 30.8742 104.747 30.9528 107 31C104.948 30.1258 103.253 30.0472 101 30z"/>
<path style="fill:#f5dac1; stroke:none;" d="M124 30C125.769 30.7789 127.036 30.9124 129 31C127.231 30.2211 125.964 30.0876 124 30z"/>
<path style="fill:#fee1cb; stroke:none;" d="M148 30C150.613 31.0977 153.165 30.9928 156 31C153.387 29.9023 150.835 30.0072 148 30z"/>
<path style="fill:#fddfc3; stroke:none;" d="M171 30C172.769 30.7789 174.036 30.9124 176 31C174.231 30.2211 172.964 30.0876 171 30z"/>
<path style="fill:#ebc7a4; stroke:none;" d="M196 30L197 31L196 30z"/>
<path style="fill:#e5b0c5; stroke:none;" d="M66 31C67.769 31.7789 69.0359 31.9124 71 32C69.231 31.2211 67.9641 31.0876 66 31z"/>
<path style="fill:#d8a484; stroke:none;" d="M77 33C79.3772 32.428 81.558 32.1095 84 32C81.266 30.8599 79.0026 30.7068 77 33z"/>
<path style="fill:#fdd8bf; stroke:none;" d="M84 31C85.3303 32.7525 86.2475 33.6697 88 35C87.1613 32.3735 86.6265 31.8387 84 31z"/>
<path style="fill:#f9e5c3; stroke:none;" d="M97 34C98.4566 32.8966 98.8966 32.4566 100 31C97.8764 31.8993 97.8993 31.8764 97 34z"/>
<path style="fill:#dfc7a2; stroke:none;" d="M100.667 31.3333C100.222 31.7778 101.278 31.7222 101.333 31.6667C101.778 31.2222 100.722 31.2778 100.667 31.3333z"/>
<path style="fill:#ceaa7f; stroke:none;" d="M102 31C103.769 31.7789 105.036 31.9124 107 32C105.231 31.2211 103.964 31.0876 102 31z"/>
<path style="fill:#ffeacf; stroke:none;" d="M119 41C120.576 37.5873 121.171 34.6959 124 32C118.708 30.8875 119.013 37.239 119 41z"/>
<path style="fill:#d0a57f; stroke:none;" d="M124 31C126.052 31.8742 127.747 31.9528 130 32C127.948 31.1257 126.253 31.0472 124 31z"/>
<path style="fill:#f5d1ad; stroke:none;" d="M130 31C131.341 32.2741 132.403 33.0407 134 34C132.774 31.9653 132.297 31.6736 130 31z"/>
<path style="fill:#e9c1a7; stroke:none;" d="M144 35C145.753 33.6697 146.67 32.7525 148 31C145.751 32.1536 145.154 32.7511 144 35z"/>
<path style="fill:#d3a682; stroke:none;" d="M148 31C150.052 31.8743 151.747 31.9528 154 32C151.948 31.1257 150.253 31.0472 148 31z"/>
<path style="fill:#f7d2ac; stroke:none;" d="M154 31L157 35C157.615 32.3463 156.467 31.7915 154 31z"/>
<path style="fill:#dfbd9a; stroke:none;" d="M170.667 31.3333C170.222 31.7778 171.278 31.7222 171.333 31.6667C171.778 31.2222 170.722 31.2778 170.667 31.3333z"/>
<path style="fill:#d2a37e; stroke:none;" d="M172 31C173.506 31.683 174.315 31.8259 176 32C174.494 31.317 173.685 31.1741 172 31z"/>
<path style="fill:#fbe4cb; stroke:none;" d="M176 31C178.629 33.5369 180.898 35.9914 183 39C183.761 34.3213 180.29 31.6779 176 31z"/>
<path style="fill:#d49b6b; stroke:none;" d="M189 41C191.24 36.1913 192.174 32.9021 198 32C191.215 29.2661 189.066 35.3688 189 41z"/>
<path style="fill:#d9b291; stroke:none;" d="M198.667 31.3333C198.222 31.7778 199.278 31.7222 199.333 31.6667C199.778 31.2222 198.722 31.2778 198.667 31.3333z"/>
<path style="fill:#f7d3bb; stroke:none;" d="M73 35L77 33C74.6918 32.4424 74.2436 33.0036 73 35z"/>
<path style="fill:#f3733c; stroke:none;" d="M78 32C77.5982 33.9435 77.5982 34.0565 78 36L81 35L80 32L78 32z"/>
<path style="fill:#d28650; stroke:none;" d="M80 32L80 34C83.8308 34.9973 85.9358 37.6364 89 40C87.295 35.0681 85.3905 32.4109 80 32z"/>
<path style="fill:#d2a06e; stroke:none;" d="M97 38L101 32C98.1504 33.5564 97.4969 34.7929 97 38z"/>
<path style="fill:#d28a4a; stroke:none;" d="M98 42C98.7067 40.4886 99.0699 38.5955 100.014 37.2106C105.79 28.7373 113.799 44.1408 118 47C115.951 41.7336 112.378 35.7363 106.995 33.3079C100.583 30.4148 96.8274 36.2766 98 42z"/>
<path style="fill:#d1996e; stroke:none;" d="M105 32L111 36C109.444 33.1504 108.207 32.4969 105 32z"/>
<path style="fill:#e1b18c; stroke:none;" d="M122 32L122 34C123.635 33.455 123.455 33.6351 124 32L122 32z"/>
<path style="fill:#d58645; stroke:none;" d="M123 45C124.551 38.5703 122.874 32.929 132 35C129.633 31.6503 123.645 30.8821 121.604 35.3441C120.153 38.5164 121.627 42.1464 123 45z"/>
<path style="fill:#deaa7a; stroke:none;" d="M130.667 32.3333C130.222 32.7778 131.278 32.7222 131.333 32.6667C131.778 32.2222 130.722 32.2778 130.667 32.3333z"/>
<path style="fill:#c98659; stroke:none;" d="M144 41C146.769 35.7477 148.717 33.2039 155 33C148.268 30.1825 144.214 34.398 144 41z"/>
<path style="fill:#c78654; stroke:none;" d="M167 41C169.802 35.0115 172.033 32.1971 179 35C176.857 31.6943 170.646 30.4255 168.028 34.3164C166.759 36.2018 167.025 38.8496 167 41z"/>
<path style="fill:#d4824f; stroke:none;" d="M190 40C194.429 33.1876 198.046 34.6943 204 39C200.961 30.2811 190.77 29.8239 190 40z"/>
<path style="fill:#d9946f; stroke:none;" d="M75 33L75 35C76.6352 34.4549 76.4549 34.6352 77 33L75 33z"/>
<path style="fill:#fde9d2; stroke:none;" d="M88 33C88.3972 35.3013 88.957 36.9045 90 39C90.4441 36.4171 89.6306 35.043 88 33z"/>
<path style="fill:#ce915d; stroke:none;" d="M132 33C133.104 35.3572 133.956 36.3761 136 38C134.896 35.6428 134.044 34.6238 132 33z"/>
<path style="fill:#fdeacd; stroke:none;" d="M134 33C135.185 36.0565 136.482 37.9044 139 40C138.274 36.4273 137.242 34.6981 134 33z"/>
<path style="fill:#d58649; stroke:none;" d="M148 33C149.847 33.8068 152.048 33.9857 153.796 35.0208C156.88 36.8481 158.852 40.0825 162 42C158.968 34.7986 155.512 33.0058 148 33z"/>
<path style="fill:#ffe4c7; stroke:none;" d="M158 33C158.397 35.3013 158.957 36.9045 160 39C160.444 36.417 159.631 35.043 158 33z"/>
<path style="fill:#d78243; stroke:none;" d="M168 43C170.463 37.3624 170.954 34.6653 178 35C171.058 29.8233 168.021 36.9218 168 43z"/>
<path style="fill:#d8a176; stroke:none;" d="M179.333 33.6667C179.278 33.7222 179.222 34.7778 179.667 34.3333C179.722 34.2778 179.778 33.2222 179.333 33.6667z"/>
<path style="fill:#d0823f; stroke:none;" d="M76 34C71.1763 40.8955 78.1121 48.2369 82 54C83.0973 49.3106 78.68 46.0668 76.9761 41.9606C75.8767 39.3113 76.6948 36.6396 76 34z"/>
<path style="fill:#e97d2e; stroke:none;" d="M77 35C74.4096 41.6073 78.7411 45.3629 81.8349 50.9753C88.5871 63.2244 97.6638 74.1693 105.074 86.169C107.665 90.3652 113.642 98.9642 119.682 94.9715C127.757 89.6333 114.631 80.4529 112.174 76.7052C109.912 73.2555 108.784 68.6665 106.664 64.9961C102.929 58.5323 98.3115 53.3688 93.7531 47.625C90.5251 43.5576 88.566 36.0556 82.6914 34.7083C80.9253 34.3033 78.7992 34.9453 77 35z"/>
<path style="fill:#f5e2ce; stroke:none;" d="M96 34L96 37C96.6961 35.4463 96.6961 35.5537 96 34z"/>
<path style="fill:#e47e36; stroke:none;" d="M111 62L114 60C114.572 62.3772 114.89 64.558 115 67C115.685 65.7517 115.749 65.4516 116 64C120.18 66.383 121.576 71.4658 126 73C125.839 68.0166 123.248 64.6427 122 60L126 62C125.359 57.1024 122.737 50.8477 118.532 47.8927C116.589 46.5273 114.092 46.5461 112.103 45.2677C108.907 43.2126 107.773 40.1763 104 39L105 46L108 46L108 51C102.396 46.2472 96.3655 37.1713 107 35C101.518 32.8856 97.875 37.5047 99.054 42.9606C100.448 49.4122 107.201 56.695 111 62z"/>
<path style="fill:#e7c09f; stroke:none;" d="M111 34L111 37C111.696 35.4463 111.696 35.5537 111 34z"/>
<path style="fill:#fce8cf; stroke:none;" d="M112 34L113 38C113.393 36.076 113.146 35.6404 112 34z"/>
<path style="fill:#ef7c24; stroke:none;" d="M130 51C130.684 49.42 130.805 49.2228 132 48C132.246 55.7135 138.26 70.3758 146 73C146.176 74.8781 146.438 76.1994 147 78C151.657 76.535 156.796 73.6517 152 69C149.885 70.4213 147.547 70.0253 145 70C144.413 64.8358 135.301 55.0686 145 54C142.89 47.8284 135.486 34.7517 127.99 34.206C124.368 33.9424 123.058 36.8075 123.138 40C123.255 44.6636 126.665 48.1526 130 51z"/>
<path style="fill:#f2dac9; stroke:none;" d="M143.333 34.6667C143.278 34.7223 143.222 35.7777 143.667 35.3333C143.722 35.2778 143.778 34.2222 143.333 34.6667z"/>
<path style="fill:#e77d35; stroke:none;" d="M156 56L155 52C163.248 51.3407 156.782 45.9923 156 41L162 44C159.853 39.6755 151.068 28.6861 146.029 36.3179C141.865 42.6229 150.908 53.2728 156 56z"/>
<path style="fill:#ed7c2d; stroke:none;" d="M178 51C177.638 46.2246 174.529 42.774 174 38C178.051 41.0001 179.976 45.5511 185 47C184.5 43.7712 182.815 41.141 182 38C179.711 36.8503 177.633 34.7567 174.951 34.6481C163.435 34.1823 171.958 49.1044 178 51z"/>
<path style="fill:#ed7c2b; stroke:none;" d="M190 41C193.951 44.295 195.145 48.8292 198.327 52.6821C201.362 56.3571 208.056 55.4618 207.731 49.9807C207.406 44.483 198.986 27.6089 191.938 36.2971C190.87 37.6132 190.497 39.4317 190 41z"/>
<path style="fill:#cba27b; stroke:none;" d="M202 34C202.684 35.58 202.805 35.7772 204 37C203.316 35.42 203.195 35.2228 202 34z"/>
<path style="fill:#f8dbbe; stroke:none;" d="M72 35C72.0476 40.256 72.7524 43.6329 77 47L72 35z"/>
<path style="fill:#eabc99; stroke:none;" d="M73.3333 35.6667C73.2778 35.7222 73.2222 36.7778 73.6667 36.3333C73.7222 36.2778 73.7778 35.2222 73.3333 35.6667z"/>
<path style="fill:#d2986f; stroke:none;" d="M87 35C87.6836 36.58 87.8048 36.7772 89 38C88.3164 36.42 88.1952 36.2228 87 35z"/>
<path style="fill:#ee7e29; stroke:none;" d="M108 51L108 46L105 46L104 39C108.638 41.4012 110.228 46.8229 116 46C115.009 43.7768 113.944 41.9088 112.366 40.0147C109.787 36.9194 101.725 31.8657 100.377 39.1088C99.5222 43.6991 104.405 48.9813 108 51z"/>
<path style="fill:#deac83; stroke:none;" d="M120 35L120 41C120.951 38.7148 120.951 37.2853 120 35z"/>
<path style="fill:#d38140; stroke:none;" d="M132 35C132.854 37.5251 133.508 38.03 136 39C134.67 37.2475 133.753 36.3303 132 35z"/>
<path style="fill:#c77e46; stroke:none;" d="M179 35C179.406 37.0924 179.217 37.0198 181 38C180.309 36.6115 180.015 36.1394 179 35z"/>
<path style="fill:#d6a075; stroke:none;" d="M180 35C180.684 36.58 180.805 36.7772 182 38C181.316 36.42 181.195 36.2228 180 35z"/>
<path style="fill:#ebc2a1; stroke:none;" d="M143 36L143 41C143.83 38.9695 143.83 38.0305 143 36z"/>
<path style="fill:#dcaf81; stroke:none;" d="M166 36C166.119 41.052 167.092 44.6386 171 48C169.724 43.9596 167.881 39.7895 166 36z"/>
<path style="fill:#dda570; stroke:none;" d="M73 37L73 41C73.7102 39.2405 73.7102 38.7595 73 37z"/>
<path style="fill:#ffefd2; stroke:none;" d="M95 37C95.168 39.4025 95.1969 40.4602 97 42C96.4494 40.1749 95.9241 38.6482 95 37z"/>
<path style="fill:#e9c69a; stroke:none;" d="M96 37L96 41C96.7102 39.2405 96.7102 38.7595 96 37z"/>
<path style="fill:#e5b68f; stroke:none;" d="M188 37L188 40C188.696 38.4463 188.696 38.5537 188 37z"/>
<path style="fill:#e09a64; stroke:none;" d="M204 37C204.936 38.9485 205.392 39.5502 207 41C206.064 39.0515 205.608 38.4498 204 37z"/>
<path style="fill:#db9c70; stroke:none;" d="M89 38C89.6836 39.58 89.8048 39.7772 91 41C90.3164 39.42 90.1952 39.2228 89 38z"/>
<path style="fill:#e1b091; stroke:none;" d="M113 38C113.936 39.9486 114.392 40.5502 116 42C115.064 40.0514 114.608 39.4498 113 38z"/>
<path style="fill:#e8a063; stroke:none;" d="M136 38C136.936 39.9486 137.392 40.5502 139 42C138.064 40.0515 137.608 39.4498 136 38z"/>
<path style="fill:#e18035; stroke:none;" d="M174 38C174.247 42.5124 179.306 48.1314 175 51C177.566 56.2598 182.517 60.2375 184 66C184.685 64.7516 184.749 64.4516 185 63C189.422 65.7215 191.492 69.4354 195 73L191 76C194.243 77.1001 197.483 74.845 201 75C200.991 63.1132 191.622 54.0986 186 44C185.315 45.2484 185.251 45.5484 185 47C180.803 44.9962 178.696 41.6792 176 38L174 38z"/>
<path style="fill:#d4a17d; stroke:none;" d="M182 38C182.684 39.58 182.805 39.7772 184 41C183.316 39.42 183.195 39.2228 182 38z"/>
<path style="fill:#ebc6ab; stroke:none;" d="M91.3333 39.6667C91.2778 39.7222 91.2222 40.7778 91.6667 40.3333C91.7222 40.2778 91.7778 39.2222 91.3333 39.6667z"/>
<path style="fill:#fadcbe; stroke:none;" d="M139 40L139 43C139.696 41.4463 139.696 41.5537 139 40z"/>
<path style="fill:#db8342; stroke:none;" d="M182 40C182.684 41.58 182.805 41.7772 184 43C183.316 41.42 183.195 41.2228 182 40z"/>
<path style="fill:#da853f; stroke:none;" d="M205 40C205.982 46.5538 210.853 54.2484 201 55C205.11 57.8589 210.857 55.5293 210.758 49.9954C210.685 45.9457 207.804 42.5721 205 40z"/>
<path style="fill:#da9b68; stroke:none;" d="M91 41C91.9357 42.9486 92.3924 43.5502 94 45C93.0643 43.0514 92.6076 42.4498 91 41z"/>
<path style="fill:#ebc6a4; stroke:none;" d="M97.3333 41.6667C97.2778 41.7222 97.2222 42.7778 97.6667 42.3333C97.7222 42.2778 97.7778 41.2222 97.3333 41.6667z"/>
<path style="fill:#ffead5; stroke:none;" d="M116 41C116.684 42.58 116.805 42.7772 118 44L118 41L116 41z"/>
<path style="fill:#e9c9a9; stroke:none;" d="M120 41C120.684 42.58 120.805 42.7772 122 44C121.316 42.42 121.195 42.2228 120 41z"/>
<path style="fill:#fee3c4; stroke:none;" d="M143.333 41.6667C143.278 41.7223 143.222 42.7777 143.667 42.3333C143.722 42.2778 143.778 41.2222 143.333 41.6667z"/>
<path style="fill:#f2ba89; stroke:none;" d="M144.333 41.6667C144.278 41.7222 144.222 42.7778 144.667 42.3333C144.722 42.2778 144.778 41.2222 144.333 41.6667z"/>
<path style="fill:#e97d27; stroke:none;" d="M156 41C156.388 46.0602 162.514 50.9249 155 52C155.685 55.403 157.453 57.9307 159 61L161 61C162.45 59.3924 163.051 58.9357 165 58C164.304 61.3901 163.221 64.5216 163 68L167 66L166 72L169 70C170.568 76.3447 171.93 84.8746 179 87C178.347 82.6705 175.653 79.3295 175 75L180 76C179.693 73.8772 179.618 73.314 178 72L179 70C176.103 68.0705 174.464 67.412 171 68L172 62C162.229 59.1605 165.76 44.4266 156 41z"/>
<path style="fill:#df9868; stroke:none;" d="M184 41C184.684 42.58 184.805 42.7772 186 44C185.316 42.42 185.195 42.2228 184 41z"/>
<path style="fill:#ecd19c; stroke:none;" d="M189.333 41.6667C189.278 41.7222 189.222 42.7778 189.667 42.3333C189.722 42.2778 189.778 41.2222 189.333 41.6667z"/>
<path style="fill:#c5874a; stroke:none;" d="M190 41C190.902 42.9225 191.076 42.9988 193 44C192.101 41.8764 192.124 41.8993 190 41z"/>
<path style="fill:#d3a472; stroke:none;" d="M207 41C207.684 42.58 207.805 42.7772 209 44C208.316 42.42 208.195 42.2228 207 41z"/>
<path style="fill:#d78f4f; stroke:none;" d="M138 42C138.684 43.58 138.805 43.7772 140 45C139.316 43.42 139.195 43.2228 138 42z"/>
<path style="fill:#e0a778; stroke:none;" d="M162 42C162.936 43.9485 163.392 44.5502 165 46C164.064 44.0514 163.608 43.4498 162 42z"/>
<path style="fill:#d87e3b; stroke:none;" d="M91 43C92.1152 46.1675 93.1887 48.1404 96 50C94.8155 46.9434 93.5179 45.0956 91 43z"/>
<path style="fill:#f7ddc2; stroke:none;" d="M94.3333 43.6667C94.2778 43.7222 94.2222 44.7778 94.6667 44.3333C94.7222 44.2778 94.7778 43.2222 94.3333 43.6667z"/>
<path style="fill:#ebbb91; stroke:none;" d="M98 43C98.6836 44.58 98.8048 44.7772 100 46C99.3164 44.42 99.1952 44.2228 98 43z"/>
<path style="fill:#f3c494; stroke:none;" d="M140 43C140.547 44.875 141.11 46.2553 142 48C142.566 45.4913 141.848 44.7802 140 43z"/>
<path style="fill:#fdddba; stroke:none;" d="M144.333 43.6667C144.278 43.7222 144.222 44.7778 144.667 44.3333C144.722 44.2778 144.778 43.2222 144.333 43.6667z"/>
<path style="fill:#f3c094; stroke:none;" d="M145 43C146.174 48.1157 148.803 51.8835 153 55C151.085 50.6771 148.244 46.45 145 43z"/>
<path style="fill:#cb9964; stroke:none;" d="M190 43L193 48C193.401 45.2592 192.343 44.3466 190 43z"/>
<path style="fill:#e8b88a; stroke:none;" d="M117 44C117.684 45.58 117.805 45.7772 119 47C118.316 45.42 118.195 45.2228 117 44z"/>
<path style="fill:#eac29e; stroke:none;" d="M122 44C122.684 45.58 122.805 45.7772 124 47C123.316 45.42 123.195 45.2228 122 44z"/>
<path style="fill:#d68342; stroke:none;" d="M162 44C163.555 47.7784 165.543 50.868 166 55L169 54C169.849 55.9912 170.267 56.7776 172 58C170.226 52.6491 166.738 47.1283 162 44z"/>
<path style="fill:#e7ad72; stroke:none;" d="M186 44C186.684 45.58 186.805 45.7772 188 47C187.316 45.42 187.195 45.2228 186 44z"/>
<path style="fill:#d08954; stroke:none;" d="M193 44C193.875 47.6283 194.71 50.0988 198 52C196.636 49.0077 195.256 46.3903 193 44z"/>
<path style="fill:#cea66e; stroke:none;" d="M209 44C209.684 45.58 209.805 45.7772 211 47C210.316 45.42 210.195 45.2228 209 44z"/>
<path style="fill:#e2ac84; stroke:none;" d="M94 45C94.6836 46.58 94.8048 46.7772 96 48C95.3164 46.42 95.1952 46.2228 94 45z"/>
<path style="fill:#d9833e; stroke:none;" d="M170 45C171.283 47.8515 172.279 49.4654 175 51L173 45L170 45z"/>
<path style="fill:#e47e39; stroke:none;" d="M124 46C130.403 57.7368 138.422 68.7661 145.692 79.9992C148.548 84.4115 152.755 92.1083 157.329 94.8171C160.068 96.4397 163.942 95.6564 167 96C168.066 91.5105 168.015 88.1875 166 84C165.049 85.9407 164.561 87.8976 164 90C162.805 87.8339 162.309 86.4471 162 84C158.232 82.6157 157.305 80.956 157 77L162 79C158.881 71.4853 153.54 64.8281 148.255 58.7299C146.727 56.9663 142.953 50.8521 140.603 55.4491C138.077 60.3933 144.058 65.4079 145 70C147.593 70.084 150.043 70.7121 152 69C155.235 73.9452 151.478 75.9774 147 78L146 73C138.876 68.9872 132.584 56.0656 132 48C130.217 48.9802 130.406 48.9076 130 51C128.652 49.2324 127.878 48.0175 127 46L124 46z"/>
<path style="fill:#fce2c6; stroke:none;" d="M143 46L143 49C143.696 47.4463 143.696 47.5537 143 46z"/>
<path style="fill:#e67e31; stroke:none;" d="M162 46C163.805 51.7718 165.163 60.7532 172 62L171 68C174.173 67.86 176.147 68.7014 179 70L178 72C179.267 73.543 179.489 74.0478 180 76C178.199 75.4382 176.878 75.1759 175 75C175.336 79.5047 177.858 82.7509 179 87C172.503 83.755 171.045 76.3991 169 70C167.686 70.7679 167.768 70.6859 167 72C166.762 69.9053 166.816 68.1107 167 66L163 68C164.79 72.9127 167.796 76.7108 170.631 81.0394C172.524 83.9284 173.982 87.0679 175.826 89.9846C178.543 94.2831 188.747 99.8492 189.714 90.9452C190.072 87.6444 187.878 84.8843 186.665 82C183.529 74.5426 179.288 67.3396 174.084 61.0895C171.643 58.1572 169.967 54.895 166 55C165.783 51.0142 165.017 48.6617 162 46z"/>
<path style="fill:#f2c5a0; stroke:none;" d="M77 47C77.4057 49.0924 77.2167 49.0198 79 50C78.3164 48.42 78.1952 48.2228 77 47z"/>
<path style="fill:#dba576; stroke:none;" d="M100 47L103 52C103.401 49.2592 102.343 48.3466 100 47z"/>
<path style="fill:#ecb275; stroke:none;" d="M119 47C119.936 48.9486 120.392 49.5502 122 51C121.064 49.0514 120.608 48.4498 119 47z"/>
<path style="fill:#edc0a5; stroke:none;" d="M124 47C124.684 48.58 124.805 48.7772 126 50C125.316 48.42 125.195 48.2228 124 47z"/>
<path style="fill:#db8137; stroke:none;" d="M135 47L135 52L139 52C138.503 48.9339 137.964 47.9683 135 47z"/>
<path style="fill:#edb07f; stroke:none;" d="M166.333 47.6667C166.278 47.7222 166.222 48.7778 166.667 48.3333C166.722 48.2778 166.778 47.2222 166.333 47.6667z"/>
<path style="fill:#db996c; stroke:none;" d="M188 47C188.684 48.58 188.805 48.7772 190 50C189.316 48.42 189.195 48.2228 188 47z"/>
<path style="fill:#cba079; stroke:none;" d="M211 47L211 52C211.83 49.9695 211.83 49.0305 211 47z"/>
<path style="fill:#e5b188; stroke:none;" d="M96 48C96.6836 49.58 96.8048 49.7772 98 51C97.3164 49.42 97.1952 49.2228 96 48z"/>
<path style="fill:#eac39c; stroke:none;" d="M171.333 48.6667C171.278 48.7223 171.222 49.7778 171.667 49.3333C171.722 49.2778 171.778 48.2222 171.333 48.6667z"/>
<path style="fill:#f9dae1; stroke:none;" d="M4 49C9.70726 51.3949 17.846 50 24 50L66 50C60.2927 47.6051 52.154 49 46 49L4 49z"/>
<path style="fill:#d1a07b; stroke:none;" d="M143 49C143.684 50.58 143.805 50.7772 145 52C144.316 50.42 144.195 50.2228 143 49z"/>
<path style="fill:#e8c398; stroke:none;" d="M194 49L195 50L194 49z"/>
<path style="fill:#c77585; stroke:none;" d="M3 50C8.70726 52.3949 16.846 51 23 51L66 51C60.2927 48.6051 52.154 50 46 50L3 50z"/>
<path style="fill:#ca9ab5; stroke:none;" d="M66 50L66 55C66.8299 52.9695 66.8299 52.0305 66 50z"/>
<path style="fill:#e8bca1; stroke:none;" d="M79 50C79.9311 52.7407 80.8186 54.104 83 56C81.9947 53.4147 81.0199 51.8962 79 50z"/>
<path style="fill:#f37a23; stroke:none;" d="M118 50C117.043 51.5166 116.613 52.3385 116 54C114.814 52.9644 114.396 52.6613 113 52L113 59C117.873 58.2114 120.951 54.6025 118 50z"/>
<path style="fill:#f9caab; stroke:none;" d="M126.333 50.6667C126.278 50.7222 126.222 51.7778 126.667 51.3333C126.722 51.2778 126.778 50.2222 126.333 50.6667z"/>
<path style="fill:#f6d1ac; stroke:none;" d="M172.333 50.6667C172.278 50.7223 172.222 51.7778 172.667 51.3333C172.722 51.2778 172.778 50.2222 172.333 50.6667z"/>
<path style="fill:#d7a36e; stroke:none;" d="M190 50C190.684 51.58 190.805 51.7772 192 53C191.316 51.42 191.195 51.2228 190 50z"/>
<path style="fill:#edc0c4; stroke:none;" d="M2 51C2.16804 53.4025 2.19692 54.4602 4 56C3.44939 54.1749 2.92407 52.6482 2 51z"/>
<path style="fill:#996167; stroke:none;" d="M3 51L3 55C3.71021 53.2405 3.71021 52.7595 3 51z"/>
<path style="fill:#862b38; stroke:none;" d="M4 51C4.30674 53.1227 4.3821 53.686 6 55C6 52.6365 6.71893 52.7604 9 52C7.23095 51.2211 5.96407 51.0876 4 51z"/>
<path style="fill:#a41f3b; stroke:none;" d="M9 51C14.2165 53.1889 21.3809 52 27 52L63 52C57.7835 49.8111 50.6191 51 45 51L9 51z"/>
<path style="fill:#783346; stroke:none;" d="M63 51L65 55C65.683 53.494 65.8259 52.6852 66 51L63 51z"/>
<path style="fill:#e7b581; stroke:none;" d="M98 51C98.6836 52.58 98.8048 52.7772 100 54C99.3164 52.42 99.1952 52.2228 98 51z"/>
<path style="fill:#ebbe95; stroke:none;" d="M122.333 51.6667C122.278 51.7222 122.222 52.7778 122.667 52.3333C122.722 52.2778 122.778 51.2222 122.333 51.6667z"/>
<path style="fill:#cf8a55; stroke:none;" d="M173 51C174.094 53.3574 174.835 54.5993 177 56C176.256 53.3202 175.471 52.2809 173 51z"/>
<path style="fill:#f07b27; stroke:none;" d="M188 51C186.901 51.0857 185.28 50.9469 184.273 51.6034C178.479 55.3805 186.521 64.0754 187.891 55.0255C188.088 53.7269 187.988 52.3034 188 51z"/>
<path style="fill:#aa1130; stroke:none;" d="M7 52L7 54L64 54L64 52L7 52z"/>
<path style="fill:#9d2738; stroke:none;" d="M64 52C59.5613 55.3627 52.3787 54 47 54C33.2662 54 18.5294 55.5117 5 53C8.62937 56.1109 14.3837 55 19 55L51 55C53.8827 55 65.757 56.6609 64 52z"/>
<path style="fill:#ebc59f; stroke:none;" d="M104.333 52.6667C104.278 52.7222 104.222 53.7778 104.667 53.3333C104.722 53.2778 104.778 52.2222 104.333 52.6667z"/>
<path style="fill:#dd9662; stroke:none;" d="M127 52C128.103 53.4566 128.543 53.8966 130 55C129.101 52.8764 129.124 52.8993 127 52z"/>
<path style="fill:#de9a65; stroke:none;" d="M145 52C145.684 53.58 145.805 53.7772 147 55C146.316 53.42 146.195 53.2228 145 52z"/>
<path style="fill:#efc7a1; stroke:none;" d="M173 52L174 53L173 52z"/>
<path style="fill:#cf9872; stroke:none;" d="M196 52C197.103 53.4566 197.543 53.8966 199 55C198.101 52.8764 198.124 52.8993 196 52z"/>
<path style="fill:#f2c6ac; stroke:none;" d="M211.333 52.6667C211.278 52.7223 211.222 53.7777 211.667 53.3333C211.722 53.2778 211.778 52.2222 211.333 52.6667z"/>
<path style="fill:#e0b28a; stroke:none;" d="M123.333 53.6667C123.278 53.7222 123.222 54.7778 123.667 54.3333C123.722 54.2778 123.778 53.2222 123.333 53.6667z"/>
<path style="fill:#dea375; stroke:none;" d="M192 53C192.684 54.58 192.805 54.7772 194 56C193.316 54.42 193.195 54.2228 192 53z"/>
<path style="fill:#ebae8b; stroke:none;" d="M210.333 53.6667C210.278 53.7223 210.222 54.7778 210.667 54.3333C210.722 54.2778 210.778 53.2222 210.333 53.6667z"/>
<path style="fill:#e5ad8e; stroke:none;" d="M100 54C100.931 56.7407 101.819 58.104 104 60C102.995 57.4147 102.02 55.8962 100 54z"/>
<path style="fill:#eacd99; stroke:none;" d="M105 54C105.931 56.7407 106.819 58.104 109 60C107.995 57.4147 107.02 55.8962 105 54z"/>
<path style="fill:#f0c8a5; stroke:none;" d="M128 54L129 55L128 54z"/>
<path style="fill:#d18793; stroke:none;" d="M4 55C9.70726 57.3949 17.846 56 24 56L66 56C60.2927 53.6051 52.154 55 46 55L4 55z"/>
<path style="fill:#d68540; stroke:none;" d="M83 55L89 65C90.7913 60.3569 86.9171 56.9555 83 55z"/>
<path style="fill:#dea87b; stroke:none;" d="M124 55C124.684 56.58 124.805 56.7772 126 58C125.316 56.42 125.195 56.2228 124 55z"/>
<path style="fill:#f4d3ad; stroke:none;" d="M129.333 55.6667C129.278 55.7222 129.222 56.7778 129.667 56.3333C129.722 56.2778 129.778 55.2222 129.333 55.6667z"/>
<path style="fill:#d57b3e; stroke:none;" d="M146 55C146.812 57.7817 147.453 58.6274 150 60C148.774 58.0781 147.627 56.588 146 55z"/>
<path style="fill:#dd9f77; stroke:none;" d="M147 55C147.936 56.9486 148.392 57.5502 150 59C149.064 57.0514 148.608 56.4498 147 55z"/>
<path style="fill:#e3be89; stroke:none;" d="M153.333 55.6667C153.278 55.7222 153.222 56.7778 153.667 56.3333C153.722 56.2778 153.778 55.2222 153.333 55.6667z"/>
<path style="fill:#d18040; stroke:none;" d="M177 55C178.679 60.2687 182.109 67.226 187 70C184.612 64.6695 181.932 58.3797 177 55z"/>
<path style="fill:#fdefdc; stroke:none;" d="M196 55C196.322 57.5842 196.973 59.6017 198 62C198.866 59.0479 197.981 57.2768 196 55z"/>
<path style="fill:#dd975b; stroke:none;" d="M199 55C200.223 56.1952 200.42 56.3164 202 57C200.777 55.8048 200.58 55.6836 199 55z"/>
<path style="fill:#e6ae89; stroke:none;" d="M209 55L210 56L209 55z"/>
<path style="fill:#ffe0e9; stroke:none;" d="M10 56C12.0521 56.8742 13.7472 56.9528 16 57C13.9479 56.1258 12.2528 56.0472 10 56z"/>
<path style="fill:#ffe1e9; stroke:none;" d="M38 56C40.6127 57.0977 43.1645 56.9928 46 57C43.3873 55.9023 40.8355 56.0072 38 56z"/>
<path style="fill:#f1c397; stroke:none;" d="M83 56C83.6836 57.58 83.8048 57.7772 85 59C84.3164 57.42 84.1952 57.2228 83 56z"/>
<path style="fill:#e18244; stroke:none;" d="M154 56C155.766 59.7825 157.879 63.4029 160 67C161.3 62.3139 158.373 57.6674 154 56z"/>
<path style="fill:#f0bd96; stroke:none;" d="M176 56C176.684 57.58 176.805 57.7772 178 59C177.316 57.42 177.195 57.2228 176 56z"/>
<path style="fill:#d6a071; stroke:none;" d="M194 56C194.684 57.58 194.805 57.7772 196 59C195.316 57.42 195.195 57.2228 194 56z"/>
<path style="fill:#ce9360; stroke:none;" d="M205 56C206.506 56.683 207.315 56.8259 209 57C207.494 56.3169 206.685 56.1741 205 56z"/>
<path style="fill:#f3cc9e; stroke:none;" d="M130 57L131 58L130 57z"/>
<path style="fill:#eed3a3; stroke:none;" d="M154.333 57.6667C154.278 57.7222 154.222 58.7778 154.667 58.3333C154.722 58.2777 154.778 57.2222 154.333 57.6667z"/>
<path style="fill:#dda774; stroke:none;" d="M201 57C203.052 57.8742 204.747 57.9528 207 58C204.948 57.1257 203.253 57.0472 201 57z"/>
<path style="fill:#fee9ce; stroke:none;" d="M83 58C83.6735 60.2974 83.9653 60.7741 86 62C85.0449 60.2328 84.4336 59.3926 83 58z"/>
<path style="fill:#e4b084; stroke:none;" d="M126 58C126.684 59.58 126.805 59.7772 128 61C127.316 59.42 127.195 59.2228 126 58z"/>
<path style="fill:#e7bc90; stroke:none;" d="M131 58L132 59L131 58z"/>
<path style="fill:#df8130; stroke:none;" d="M159 61C159.868 63.3547 160.574 65.5309 161 68L163 68L165 58C162.627 58.651 161.038 59.6045 159 61z"/>
<path style="fill:#d68d5b; stroke:none;" d="M172 58C172.684 59.58 172.805 59.7772 174 61C173.316 59.42 173.195 59.2228 172 58z"/>
<path style="fill:#eec59e; stroke:none;" d="M85 59C85.5471 60.875 86.11 62.2553 87 64C87.375 61.581 86.6927 60.7818 85 59z"/>
<path style="fill:#f3b486; stroke:none;" d="M109 59L110 63C110.393 61.076 110.146 60.6405 109 59z"/>
<path style="fill:#e3a06b; stroke:none;" d="M150 59C150.684 60.58 150.805 60.7772 152 62C151.316 60.42 151.195 60.2228 150 59z"/>
<path style="fill:#e9c89c; stroke:none;" d="M155 59L156 60L155 59z"/>
<path style="fill:#efba92; stroke:none;" d="M178 59C178.684 60.58 178.805 60.7772 180 62C179.316 60.42 179.195 60.2228 178 59z"/>
<path style="fill:#dfac80; stroke:none;" d="M196 59C196.684 60.58 196.805 60.7772 198 62C197.316 60.42 197.195 60.2228 196 59z"/>
<path style="fill:#dfa97e; stroke:none;" d="M104.333 60.6667C104.278 60.7223 104.222 61.7778 104.667 61.3333C104.722 61.2778 104.778 60.2222 104.333 60.6667z"/>
<path style="fill:#d28544; stroke:none;" d="M112 60C111.829 63.7913 112.735 65.989 116 68L114 60L112 60z"/>
<path style="fill:#ee7b2c; stroke:none;" d="M122 60C122.704 64.6722 125.643 68.2101 126 73C121.772 70.5643 120.836 65.8069 116 64C116.403 69.5494 121.467 76.8588 126 80L126 76L130 76C129.571 81.6839 129.358 85.2277 135 88L137 79L133 80C132.475 72.4212 129.261 63.1414 122 60z"/>
<path style="fill:#d08344; stroke:none;" d="M126 60C126.406 62.0924 126.217 62.0197 128 63C127.316 61.42 127.195 61.2228 126 60z"/>
<path style="fill:#f1ceac; stroke:none;" d="M132 60L133 61L132 60z"/>
<path style="fill:#f0cdae; stroke:none;" d="M156.333 60.6667C156.278 60.7222 156.222 61.7778 156.667 61.3333C156.722 61.2777 156.778 60.2222 156.333 60.6667z"/>
<path style="fill:#d7aa79; stroke:none;" d="M174 60C174.936 61.9486 175.392 62.5502 177 64C176.064 62.0515 175.608 61.4498 174 60z"/>
<path style="fill:#e1b590; stroke:none;" d="M128 61C128.684 62.58 128.805 62.7772 130 64C129.316 62.42 129.195 62.2228 128 61z"/>
<path style="fill:#ecc099; stroke:none;" d="M133 61C133.684 62.58 133.805 62.7772 135 64C134.316 62.42 134.195 62.2228 133 61z"/>
<path style="fill:#d18345; stroke:none;" d="M196 61C196.684 62.58 196.805 62.7772 198 64C197.316 62.42 197.195 62.2228 196 61z"/>
<path style="fill:#f4cdd6; stroke:none;" d="M28 62C32.4687 63.8752 38.1913 63 43 63L73 63C68.5313 61.1248 62.8087 62 58 62L28 62z"/>
<path style="fill:#daa781; stroke:none;" d="M105 62C105.936 63.9486 106.392 64.5502 108 66C107.064 64.0514 106.608 63.4498 105 62z"/>
<path style="fill:#d9a16f; stroke:none;" d="M152.333 62.6667C152.278 62.7222 152.222 63.7778 152.667 63.3333C152.722 63.2777 152.778 62.2222 152.333 62.6667z"/>
<path style="fill:#ecbb97; stroke:none;" d="M157 62L158 63L157 62z"/>
<path style="fill:#ecbea1; stroke:none;" d="M180 62C180.684 63.58 180.805 63.7772 182 65C181.316 63.42 181.195 63.2228 180 62z"/>
<path style="fill:#d69f73; stroke:none;" d="M198.333 62.6667C198.278 62.7222 198.222 63.7778 198.667 63.3333C198.722 63.2777 198.778 62.2222 198.333 62.6667z"/>
<path style="fill:#f3d1b7; stroke:none;" d="M199.333 62.6667C199.278 62.7222 199.222 63.7778 199.667 63.3333C199.722 63.2777 199.778 62.2222 199.333 62.6667z"/>
<path style="fill:#dfc6ce; stroke:none;" d="M26 63L26 68C26.9241 66.3519 27.4494 64.8251 28 63L26 63z"/>
<path style="fill:#b56c7a; stroke:none;" d="M28 63C32.4687 64.8752 38.1913 64 43 64L73 64L73 68C73.7789 66.231 73.9124 64.9641 74 63L28 63z"/>
<path style="fill:#f3d4ae; stroke:none;" d="M111.333 63.6667C111.278 63.7223 111.222 64.7778 111.667 64.3333C111.722 64.2778 111.778 63.2222 111.333 63.6667z"/>
<path style="fill:#d3864a; stroke:none;" d="M128 63C128.684 64.58 128.805 64.7772 130 66C129.316 64.42 129.195 64.2228 128 63z"/>
<path style="fill:#f07e26; stroke:none;" d="M185 63C185.554 68.1313 188.009 71.8986 191 76C192.661 75.3872 193.483 74.9573 195 74C192.435 69.0174 190.324 65.2616 185 63z"/>
<path style="fill:#99626e; stroke:none;" d="M27 64L27 68C27.7102 66.2405 27.7102 65.7595 27 64z"/>
<path style="fill:#9c2940; stroke:none;" d="M28 67C32.6806 64.397 37.7852 65 43 65L70 65C67.1844 63.3778 63.3055 64 60 64L38 64C34.2302 64 28.9462 62.5842 28 67z"/>
<path style="fill:#7e2e39; stroke:none;" d="M70 64C71.0012 65.9238 71.0775 66.0985 73 67C72.5176 64.636 72.364 64.4825 70 64z"/>
<path style="fill:#ffdade; stroke:none;" d="M74 64L74 67C74.6961 65.4463 74.6961 65.5537 74 64z"/>
<path style="fill:#f5cea7; stroke:none;" d="M88 64C88.9357 65.9486 89.3924 66.5502 91 68C90.0643 66.0514 89.6076 65.4498 88 64z"/>
<path style="fill:#e7ae7f; stroke:none;" d="M130 64C130.936 65.9486 131.392 66.5502 133 68C132.064 66.0515 131.608 65.4498 130 64z"/>
<path style="fill:#f1d2b5; stroke:none;" d="M135.333 64.6667C135.278 64.7222 135.222 65.7778 135.667 65.3333C135.722 65.2777 135.778 64.2222 135.333 64.6667z"/>
<path style="fill:#e89c67; stroke:none;" d="M153 64C153.936 65.9485 154.392 66.5502 156 68C155.064 66.0515 154.608 65.4498 153 64z"/>
<path style="fill:#e1ad79; stroke:none;" d="M177.333 64.6667C177.278 64.7222 177.222 65.7778 177.667 65.3333C177.722 65.2777 177.778 64.2222 177.333 64.6667z"/>
<path style="fill:#d4915e; stroke:none;" d="M199.333 64.6667C199.278 64.7222 199.222 65.7778 199.667 65.3333C199.722 65.2777 199.778 64.2222 199.333 64.6667z"/>
<path style="fill:#f7c9a3; stroke:none;" d="M200 64C200.936 65.9486 201.392 66.5502 203 68C202.064 66.0515 201.608 65.4498 200 64z"/>
<path style="fill:#9f132f; stroke:none;" d="M29 65L29 67L63 67L63 65L29 65z"/>
<path style="fill:#af0d2c; stroke:none;" d="M63 65L63 67L71 67L71 65L63 65z"/>
<path style="fill:#edc497; stroke:none;" d="M112 65L113 66L112 65z"/>
<path style="fill:#f2c6a1; stroke:none;" d="M182.333 65.6667C182.278 65.7222 182.222 66.7778 182.667 66.3333C182.722 66.2777 182.778 65.2222 182.333 65.6667z"/>
<path style="fill:#fff3db; stroke:none;" d="M88 66C88.9357 67.9486 89.3924 68.5502 91 70C90.0643 68.0514 89.6076 67.4498 88 66z"/>
<path style="fill:#dfb285; stroke:none;" d="M108 66C108.684 67.58 108.805 67.7772 110 69C109.316 67.42 109.195 67.2228 108 66z"/>
<path style="fill:#f7cc9d; stroke:none;" d="M113.333 66.6667C113.278 66.7223 113.222 67.7778 113.667 67.3333C113.722 67.2778 113.778 66.2222 113.333 66.6667z"/>
<path style="fill:#e18033; stroke:none;" d="M130 66C130.047 71.1803 132.327 75.0529 133 80L137 79C135.393 84.0902 129.678 93.4255 137 96L136 93L141 92L140 86C142.803 89.2433 141.638 92.0198 141 96C144.912 94.8558 145.623 90.7648 144.389 87C142.277 80.5605 135.252 70.1698 130 66z"/>
<path style="fill:#deab80; stroke:none;" d="M136 66C137.163 68.2167 138.086 69.3942 140 71C139.061 68.3626 138.42 67.3818 136 66z"/>
<path style="fill:#e3a87b; stroke:none;" d="M178 66C178.684 67.58 178.805 67.7772 180 69C179.316 67.42 179.195 67.2228 178 66z"/>
<path style="fill:#aa3146; stroke:none;" d="M28 67C32.4687 68.8752 38.1913 68 43 68L73 68C68.5313 66.1248 62.8087 67 58 67L28 67z"/>
<path style="fill:#da8243; stroke:none;" d="M91 67C96.8899 78.0208 104.969 96.8436 119 97C114.353 94.8317 110.773 93.2661 107.481 88.9753C102.206 82.1013 98.9425 71.1965 91 67z"/>
<path style="fill:#f8d0a9; stroke:none;" d="M183.333 67.6667C183.278 67.7222 183.222 68.7778 183.667 68.3333C183.722 68.2777 183.778 67.2222 183.333 67.6667z"/>
<path style="fill:#d4814a; stroke:none;" d="M201 67L201 75C197.536 74.412 195.897 75.0705 193 77C200.114 79.7694 203.545 73.0668 201 67z"/>
<path style="fill:#e9d3bc; stroke:none;" d="M203 67L203 75C204.161 72.2302 204.161 69.7699 203 67z"/>
<path style="fill:#d38691; stroke:none;" d="M27 68C31.4687 69.8752 37.1913 69 42 69L73 69C68.5313 67.1248 62.8087 68 58 68L27 68z"/>
<path style="fill:#dac7c4; stroke:none;" d="M73 68L74 69L73 68z"/>
<path style="fill:#eac09f; stroke:none;" d="M91 68C91.4057 70.0924 91.2167 70.0197 93 71C92.3164 69.42 92.1952 69.2228 91 68z"/>
<path style="fill:#dc8e4a; stroke:none;" d="M108 68C108.684 69.58 108.805 69.7772 110 71C109.316 69.42 109.195 69.2228 108 68z"/>
<path style="fill:#d89972; stroke:none;" d="M114 68C115.163 70.2167 116.086 71.3942 118 73C117.188 70.2183 116.547 69.3726 114 68z"/>
<path style="fill:#e7b687; stroke:none;" d="M133.333 68.6667C133.278 68.7222 133.222 69.7778 133.667 69.3333C133.722 69.2777 133.778 68.2222 133.333 68.6667z"/>
<path style="fill:#e4b279; stroke:none;" d="M156 68C156.684 69.58 156.805 69.7772 158 71C157.316 69.42 157.195 69.2228 156 68z"/>
<path style="fill:#d79273; stroke:none;" d="M161 68C162.163 70.4818 163.49 72.7092 165 75C165.483 71.6908 163.758 69.6919 161 68z"/>
<path style="fill:#cf9d77; stroke:none;" d="M202 68L202 75C203.059 72.4657 203.059 70.5343 202 68z"/>
<path style="fill:#e4b77d; stroke:none;" d="M110 69C110.684 70.58 110.805 70.7772 112 72C111.316 70.42 111.195 70.2228 110 69z"/>
<path style="fill:#e2a668; stroke:none;" d="M180 69C180.684 70.58 180.805 70.7772 182 72C181.316 70.42 181.195 70.2228 180 69z"/>
<path style="fill:#f0cbad; stroke:none;" d="M184 69L185 70L184 69z"/>
<path style="fill:#e2a469; stroke:none;" d="M134.333 70.6667C134.278 70.7222 134.222 71.7778 134.667 71.3333C134.722 71.2777 134.778 70.2222 134.333 70.6667z"/>
<path style="fill:#cd8a55; stroke:none;" d="M185 70C189.035 77.2326 192.7 79.9752 201 78C194.728 76.0452 191.049 77.2382 188 70L185 70z"/>
<path style="fill:#fef8cf; stroke:none;" d="M92 71C92.5886 74.8232 93.9369 76.6693 97 79C95.7389 75.9653 94.1811 73.4601 92 71z"/>
<path style="fill:#edc89f; stroke:none;" d="M93.3333 71.6667C93.2778 71.7222 93.2222 72.7778 93.6667 72.3333C93.7222 72.2778 93.7778 71.2222 93.3333 71.6667z"/>
<path style="fill:#d5935e; stroke:none;" d="M118 71C118.554 74.4937 119.395 76.5957 122 79C121.268 75.8089 120.132 73.4868 118 71z"/>
<path style="fill:#ecbd8e; stroke:none;" d="M135.333 71.6667C135.278 71.7222 135.222 72.7778 135.667 72.3333C135.722 72.2777 135.778 71.2222 135.333 71.6667z"/>
<path style="fill:#e8c4a0; stroke:none;" d="M140.333 71.6667C140.278 71.7222 140.222 72.7778 140.667 72.3333C140.722 72.2777 140.778 71.2222 140.333 71.6667z"/>
<path style="fill:#d6a368; stroke:none;" d="M158.333 71.6667C158.278 71.7222 158.222 72.7778 158.667 72.3333C158.722 72.2777 158.778 71.2222 158.333 71.6667z"/>
<path style="fill:#d3823e; stroke:none;" d="M111 72C111.197 75.5691 111.462 77.7568 115 79C114.094 76.1549 113.032 74.187 111 72z"/>
<path style="fill:#e6ba90; stroke:none;" d="M112 72C112.684 73.58 112.805 73.7772 114 75C113.316 73.42 113.195 73.2228 112 72z"/>
<path style="fill:#d59869; stroke:none;" d="M182.333 72.6667C182.278 72.7222 182.222 73.7778 182.667 73.3333C182.722 73.2777 182.778 72.2222 182.333 72.6667z"/>
<path style="fill:#f4c6a1; stroke:none;" d="M94 73C94.9357 74.9486 95.3924 75.5502 97 77C96.0643 75.0514 95.6076 74.4498 94 73z"/>
<path style="fill:#ebcdb6; stroke:none;" d="M117 73L118 74L117 73z"/>
<path style="fill:#d9823e; stroke:none;" d="M120 73C122.515 80.8358 126.622 90.6612 134 95C132.433 88.4968 129.791 82.6976 130 76L126 76L126 80C123.748 77.65 122.775 74.7382 120 73z"/>
<path style="fill:#eeb687; stroke:none;" d="M136 73C136.684 74.58 136.805 74.7772 138 76C137.316 74.42 137.195 74.2228 136 73z"/>
<path style="fill:#e7c5a4; stroke:none;" d="M141 73C141.684 74.58 141.805 74.7772 143 76C142.316 74.42 142.195 74.2228 141 73z"/>
<path style="fill:#d99f72; stroke:none;" d="M159 73C159.936 74.9486 160.392 75.5502 162 77C161.064 75.0514 160.608 74.4498 159 73z"/>
<path style="fill:#eabc94; stroke:none;" d="M118 74L119 75L118 74z"/>
<path style="fill:#da9f6e; stroke:none;" d="M183 74C183.684 75.58 183.805 75.7772 185 77C184.316 75.42 184.195 75.2228 183 74z"/>
<path style="fill:#d9aa7b; stroke:none;" d="M114.333 75.6667C114.278 75.7222 114.222 76.7778 114.667 76.3333C114.722 76.2778 114.778 75.2222 114.333 75.6667z"/>
<path style="fill:#eec6a0; stroke:none;" d="M166.333 75.6667C166.278 75.7222 166.222 76.7778 166.667 76.3333C166.722 76.2778 166.778 75.2222 166.333 75.6667z"/>
<path style="fill:#f7d3aa; stroke:none;" d="M188.333 75.6667C188.278 75.7222 188.222 76.7778 188.667 76.3333C188.722 76.2778 188.778 75.2222 188.333 75.6667z"/>
<path style="fill:#f7cfb2; stroke:none;" d="M202 75L199 78C201.516 78.5811 202.581 77.5158 202 75z"/>
<path style="fill:#f8c6cd; stroke:none;" d="M21 76C26.2165 78.1889 33.3809 77 39 77C53.0347 77 69.3207 74.7432 83 78C79.8032 74.3417 71.5767 76 67 76L21 76z"/>
<path style="fill:#e7aa75; stroke:none;" d="M138.333 76.6667C138.278 76.7222 138.222 77.7778 138.667 77.3333C138.722 77.2777 138.778 76.2222 138.333 76.6667z"/>
<path style="fill:#f6d1aa; stroke:none;" d="M143.333 76.6667C143.278 76.7222 143.222 77.7778 143.667 77.3333C143.722 77.2778 143.778 76.2222 143.333 76.6667z"/>
<path style="fill:#eabd84; stroke:none;" d="M185 76C185.684 77.58 185.805 77.7772 187 79C186.316 77.42 186.195 77.2227 185 76z"/>
<path style="fill:#c56674; stroke:none;" d="M20 77L20 82C20.683 80.4939 20.8259 79.6852 21 78L82 78C76.2927 75.6051 68.154 77 62 77L20 77z"/>
<path style="fill:#f2c9af; stroke:none;" d="M97 77C97.6514 79.4344 98.1602 80.2827 100 82C99.1986 79.896 98.5034 78.6631 97 77z"/>
<path style="fill:#eaa66a; stroke:none;" d="M115 77C115.684 78.58 115.805 78.7772 117 80C116.316 78.42 116.195 78.2228 115 77z"/>
<path style="fill:#f27d26; stroke:none;" d="M157 77C157.139 81.1717 157.747 83.0718 162 84C162.094 86.2049 162.356 87.8941 163 90C166.9 84.7436 162.695 78.3982 157 77z"/>
<path style="fill:#dea579; stroke:none;" d="M162.333 77.6667C162.278 77.7222 162.222 78.7778 162.667 78.3333C162.722 78.2777 162.778 77.2222 162.333 77.6667z"/>
<path style="fill:#de9c6c; stroke:none;" d="M167 77C168.56 80.2731 170.206 82.6866 173 85C171.682 81.5334 170.199 78.9418 167 77z"/>
<path style="fill:#a11731; stroke:none;" d="M21 78L21 81L82 81L82 78L21 78z"/>
<path style="fill:#c78c87; stroke:none;" d="M82 78L82 82C82.7102 80.2405 82.7102 79.7595 82 78z"/>
<path style="fill:#fdded6; stroke:none;" d="M83 78L83 81C83.6961 79.4463 83.6961 79.5537 83 78z"/>
<path style="fill:#dbb089; stroke:none;" d="M139 78C139.684 79.58 139.805 79.7772 141 81C140.316 79.42 140.195 79.2228 139 78z"/>
<path style="fill:#f6ca9b; stroke:none;" d="M144 78C144.776 80.1317 145.13 80.7708 147 82C146.045 80.2328 145.434 79.3926 144 78z"/>
<path style="fill:#ffdddf; stroke:none;" d="M19.3333 79.6667C19.2778 79.7222 19.2222 80.7778 19.6667 80.3333C19.7222 80.2778 19.7778 79.2222 19.3333 79.6667z"/>
<path style="fill:#eabb8d; stroke:none;" d="M117.333 79.6667C117.278 79.7223 117.222 80.7778 117.667 80.3333C117.722 80.2778 117.778 79.2222 117.333 79.6667z"/>
<path style="fill:#f4d2b0; stroke:none;" d="M121 79L122 80L121 79z"/>
<path style="fill:#deab84; stroke:none;" d="M163 79C163.684 80.58 163.805 80.7772 165 82C164.316 80.42 164.195 80.2228 163 79z"/>
<path style="fill:#cb864f; stroke:none;" d="M186 79C186.841 86.6068 193.696 94.1254 182 96C186.957 98.0167 192.599 94.9322 191.654 88.9992C191.076 85.3741 188.299 81.7364 186 79z"/>
<path style="fill:#e5b07c; stroke:none;" d="M187.333 79.6667C187.278 79.7222 187.222 80.7778 187.667 80.3333C187.722 80.2777 187.778 79.2222 187.333 79.6667z"/>
<path style="fill:#dfb57e; stroke:none;" d="M193 79C194.769 79.779 196.036 79.9124 198 80C196.231 79.2211 194.964 79.0876 193 79z"/>
<path style="fill:#fde7be; stroke:none;" d="M194 80L194 82C196.724 81.8179 198.583 81.2646 201 80C198.607 79.2592 196.507 79.6978 194 80z"/>
<path style="fill:#f0bd8d; stroke:none;" d="M122 80L123 81L122 80z"/>
<path style="fill:#b03f53; stroke:none;" d="M21 81C26.7073 83.3949 34.846 82 41 82L82 82C76.2927 79.6051 68.154 81 62 81L21 81z"/>
<path style="fill:#fde9d6; stroke:none;" d="M98 81C98.6836 82.58 98.8048 82.7772 100 84C99.3164 82.42 99.1952 82.2228 98 81z"/>
<path style="fill:#d8aa7f; stroke:none;" d="M118 81C118.651 83.4344 119.16 84.2827 121 86C120.199 83.896 119.503 82.6631 118 81z"/>
<path style="fill:#e6be99; stroke:none;" d="M141 81L142 82L141 81z"/>
<path style="fill:#d88445; stroke:none;" d="M163 81C163.684 82.58 163.805 82.7772 165 84C164.316 82.42 164.195 82.2228 163 81z"/>
<path style="fill:#d6a576; stroke:none;" d="M188.333 81.6667C188.278 81.7222 188.222 82.7778 188.667 82.3333C188.722 82.2778 188.778 81.2222 188.333 81.6667z"/>
<path style="fill:#f9b5bf; stroke:none;" d="M21 82C26.7073 84.3949 34.846 83 41 83L82 83C76.2927 80.6051 68.154 82 62 82L21 82z"/>
<path style="fill:#f7d0b1; stroke:none;" d="M100.333 82.6667C100.278 82.7222 100.222 83.7778 100.667 83.3333C100.722 83.2778 100.778 82.2222 100.333 82.6667z"/>
<path style="fill:#f4cea9; stroke:none;" d="M123 82L124 83L123 82z"/>
<path style="fill:#e9b88c; stroke:none;" d="M142 82C142.684 83.58 142.805 83.7772 144 85C143.316 83.42 143.195 83.2228 142 82z"/>
<path style="fill:#f5caa4; stroke:none;" d="M147.333 82.6667C147.278 82.7222 147.222 83.7778 147.667 83.3333C147.722 83.2777 147.778 82.2222 147.333 82.6667z"/>
<path style="fill:#e6a473; stroke:none;" d="M165 82C165.684 83.58 165.805 83.7772 167 85C166.316 83.42 166.195 83.2228 165 82z"/>
<path style="fill:#d4aa72; stroke:none;" d="M189 83C189.936 84.9486 190.392 85.5502 192 87C191.064 85.0514 190.608 84.4498 189 83z"/>
<path style="fill:#f3d1b0; stroke:none;" d="M101 84C101.674 86.2974 101.965 86.7741 104 88C103.045 86.2328 102.434 85.3926 101 84z"/>
<path style="fill:#f6cca5; stroke:none;" d="M148 84C148.684 85.58 148.805 85.7772 150 87C149.316 85.42 149.195 85.2227 148 84z"/>
<path style="fill:#f5d9bc; stroke:none;" d="M171 84C171.838 86.6133 172.71 87.4638 175 89C173.896 86.6428 173.044 85.6239 171 84z"/>
<path style="fill:#f7d2b4; stroke:none;" d="M125 85C125.931 87.7407 126.819 89.104 129 91C127.995 88.4147 127.02 86.8962 125 85z"/>
<path style="fill:#dfb186; stroke:none;" d="M144.333 85.6667C144.278 85.7222 144.222 86.7778 144.667 86.3333C144.722 86.2777 144.778 85.2222 144.333 85.6667z"/>
<path style="fill:#deae80; stroke:none;" d="M167 85C167.684 86.58 167.805 86.7772 169 88C168.316 86.42 168.195 86.2228 167 85z"/>
<path style="fill:#e2a67d; stroke:none;" d="M121.333 86.6667C121.278 86.7222 121.222 87.7778 121.667 87.3333C121.722 87.2778 121.778 86.2222 121.333 86.6667z"/>
<path style="fill:#eb7f25; stroke:none;" d="M140 86C140.094 88.2049 140.356 89.8941 141 92L136 93C137.446 95.2827 138.311 95.5824 141 96C142.011 92.1383 143.691 88.6437 140 86z"/>
<path style="fill:#fff0ca; stroke:none;" d="M169 86L170 94C171.232 90.9774 170.825 88.672 169 86z"/>
<path style="fill:#e5b18e; stroke:none;" d="M192 86C191.936 89.0779 191.562 91.9749 191 95C193.148 92.1644 193.378 89.2915 192 86z"/>
<path style="fill:#efccb6; stroke:none;" d="M122.333 87.6667C122.278 87.7222 122.222 88.7778 122.667 88.3333C122.722 88.2778 122.778 87.2222 122.333 87.6667z"/>
<path style="fill:#dc9e73; stroke:none;" d="M145 87L145 92C145.83 89.9695 145.83 89.0305 145 87z"/>
<path style="fill:#d89868; stroke:none;" d="M150 87C151.103 88.4566 151.543 88.8966 153 90C152.101 87.8764 152.124 87.8993 150 87z"/>
<path style="fill:#fdeed9; stroke:none;" d="M193 87C192.936 90.0779 192.562 92.9749 192 96C194.148 93.1644 194.378 90.2915 193 87z"/>
<path style="fill:#f2d1b1; stroke:none;" d="M104.333 88.6667C104.278 88.7222 104.222 89.7778 104.667 89.3333C104.722 89.2777 104.778 88.2222 104.333 88.6667z"/>
<path style="fill:#de9856; stroke:none;" d="M168 88L168 93C168.83 90.9695 168.83 90.0305 168 88z"/>
<path style="fill:#f17a21; stroke:none;" d="M184 88C184.44 91.2058 184.784 93.0592 188 94C187.737 90.5902 187.321 89.0989 184 88z"/>
<path style="fill:#e2b491; stroke:none;" d="M122 89L122 93C122.71 91.2405 122.71 90.7595 122 89z"/>
<path style="fill:#f6ebcb; stroke:none;" d="M151 89C152.26 93.826 154.457 96.8574 159 99C156.586 95.519 153.956 92.027 151 89z"/>
<path style="fill:#ebc297; stroke:none;" d="M169 89C168.148 92.5631 166.709 94.5492 164 97C168.695 97.9751 170.464 92.7987 169 89z"/>
<path style="fill:#efcfb2; stroke:none;" d="M175.333 89.6667C175.278 89.7222 175.222 90.7778 175.667 90.3333C175.722 90.2778 175.778 89.2222 175.333 89.6667z"/>
<path style="fill:#fdecd4; stroke:none;" d="M104 90C105.381 94.6365 107.363 97.3857 112 99C109.825 95.6536 107.351 92.1972 104 90z"/>
<path style="fill:#fbe5cd; stroke:none;" d="M123 90L122 96C123.495 93.8149 123.889 92.508 123 90z"/>
<path style="fill:#e9ad84; stroke:none;" d="M153 90C153.651 92.4343 154.16 93.2827 156 95C155.199 92.896 154.503 91.6631 153 90z"/>
<path style="fill:#dd8220; stroke:none;" d="M159 90L159 94C160.878 93.8241 162.199 93.5618 164 93C162.283 91.1602 161.434 90.6514 159 90z"/>
<path style="fill:#eac69f; stroke:none;" d="M106 91C106.684 92.58 106.805 92.7772 108 94C107.316 92.42 107.195 92.2228 106 91z"/>
<path style="fill:#fbd2aa; stroke:none;" d="M129 91C129.684 93.209 130.08 93.7034 132 95C131.064 93.0515 130.608 92.4498 129 91z"/>
<path style="fill:#f3cb99; stroke:none;" d="M176 91C176.684 92.58 176.805 92.7772 178 94C177.316 92.42 177.195 92.2228 176 91z"/>
<path style="fill:#f4c7a0; stroke:none;" d="M145 92L145 95C145.696 93.4463 145.696 93.5537 145 92z"/>
<path style="fill:#eab07f; stroke:none;" d="M144 93L144 96C144.696 94.4463 144.696 94.5537 144 93z"/>
<path style="fill:#fef6d0; stroke:none;" d="M176 93C176.684 94.58 176.805 94.7772 178 96C177.316 94.42 177.195 94.2228 176 93z"/>
<path style="fill:#f3d9b5; stroke:none;" d="M121 94C119.814 95.1863 119.472 95.5838 119 97C120.994 96.1527 121.699 95.9928 121 94z"/>
<path style="fill:#fae7c1; stroke:none;" d="M178 94C178.823 96.712 179.567 97.5382 182 99C180.906 96.9157 179.758 95.5745 178 94z"/>
<path style="fill:#d89f76; stroke:none;" d="M109 95C111.729 97.7872 114.173 97.9556 118 98C115.163 96.6929 112.002 95.9393 109 95z"/>
<path style="fill:#d99a63; stroke:none;" d="M132.667 95.3333C132.222 95.7778 133.278 95.7222 133.333 95.6667C133.778 95.2222 132.722 95.2778 132.667 95.3333z"/>
<path style="fill:#e29171; stroke:none;" d="M156 95C158.484 97.54 160.476 97.8884 164 98C161.46 96.7033 158.728 95.8611 156 95z"/>
<path style="fill:#da8150; stroke:none;" d="M159 96C161.587 97.0654 163.321 96.7815 166 96C163.607 95.2592 161.507 95.6978 159 96z"/>
<path style="fill:#dc9c69; stroke:none;" d="M179 95C180.223 96.1952 180.42 96.3164 182 97C180.777 95.8048 180.58 95.6836 179 95z"/>
<path style="fill:#f4dbbd; stroke:none;" d="M190 95C189.455 96.6352 189.635 96.4549 188 97C190.263 97.8227 190.753 97.0035 192 95L190 95z"/>
<path style="fill:#eacfa8; stroke:none;" d="M132 96C133.223 97.1952 133.42 97.3164 135 98C133.777 96.8048 133.58 96.6836 132 96z"/>
<path style="fill:#e77555; stroke:none;" d="M134 96C136.613 97.0977 139.165 96.9928 142 97C139.387 95.9023 136.835 96.0072 134 96z"/>
<path style="fill:#f8cebf; stroke:none;" d="M141 98C142.58 97.3164 142.777 97.1952 144 96C142.42 96.6836 142.223 96.8048 141 98z"/>
<path style="fill:#dcb28a; stroke:none;" d="M188.667 96.3333C188.222 96.7778 189.278 96.7222 189.333 96.6667C189.778 96.2222 188.722 96.2778 188.667 96.3333z"/>
<path style="fill:#f5ebce; stroke:none;" d="M117 99C118.58 98.3164 118.777 98.1952 120 97C118.42 97.6836 118.223 97.8048 117 99z"/>
<path style="fill:#e69684; stroke:none;" d="M135 97C137.052 97.8743 138.747 97.9528 141 98C138.948 97.1257 137.253 97.0472 135 97z"/>
<path style="fill:#dea06f; stroke:none;" d="M182 97C184.052 97.8743 185.747 97.9528 188 98C185.948 97.1258 184.253 97.0472 182 97z"/>
<path style="fill:#f1d3ac; stroke:none;" d="M112 98C113.769 98.7789 115.036 98.9124 117 99C115.231 98.2211 113.964 98.0876 112 98z"/>
<path style="fill:#f5c6c2; stroke:none;" d="M134 98C136.332 98.9845 138.457 98.9813 141 99C138.668 98.0155 136.543 98.0187 134 98z"/>
<path style="fill:#f6c4ac; stroke:none;" d="M159 98C160.769 98.7789 162.036 98.9124 164 99C162.231 98.2211 160.964 98.0876 159 98z"/>
<path style="fill:#fdedd4; stroke:none;" d="M164.667 98.3333C164.222 98.7778 165.278 98.7222 165.333 98.6667C165.778 98.2222 164.722 98.2778 164.667 98.3333z"/>
<path style="fill:#f2d3aa; stroke:none;" d="M182 98C184.052 98.8743 185.747 98.9528 188 99C185.948 98.1258 184.253 98.0472 182 98z"/>
<path style="fill:#fef1d5; stroke:none;" d="M182 99C184.852 100.188 187.06 99.8644 190 99C187.384 98.3708 184.717 98.8899 182 99z"/>
<path style="fill:#feebd7; stroke:none;" d="M113 99C114.506 99.683 115.315 99.8259 117 100C115.494 99.317 114.685 99.1741 113 99z"/>
<path style="fill:#fce3d7; stroke:none;" d="M159 99C160.506 99.683 161.315 99.8259 163 100C161.494 99.317 160.685 99.1741 159 99z"/>
<path style="fill:#f4bac2; stroke:none;" d="M124 101C125.809 101.574 126.069 101.465 128 101C126.341 100.594 125.758 100.691 124 101z"/>
<path style="fill:#d9a6aa; stroke:none;" d="M128 100C129.769 100.779 131.036 100.912 133 101C131.231 100.221 129.964 100.088 128 100z"/>
<path style="fill:#edc8c9; stroke:none;" d="M133 100C134.248 100.685 134.548 100.749 136 101C134.752 100.315 134.452 100.251 133 100z"/>
<path style="fill:#edcace; stroke:none;" d="M168.667 100.333C168.222 100.778 169.278 100.722 169.333 100.667C169.778 100.222 168.722 100.278 168.667 100.333z"/>
<path style="fill:#dca2a4; stroke:none;" d="M170 100C171.769 100.779 173.036 100.912 175 101C173.231 100.221 171.964 100.088 170 100z"/>
<path style="fill:#eebfd1; stroke:none;" d="M175 100C176.248 100.685 176.548 100.749 178 101C176.752 100.315 176.452 100.251 175 100z"/>
<path style="fill:#b7585d; stroke:none;" d="M127.667 101.333C127.222 101.778 128.278 101.722 128.333 101.667C128.778 101.222 127.722 101.278 127.667 101.333z"/>
<path style="fill:#983a44; stroke:none;" d="M129 101C130.506 101.683 131.315 101.826 133 102C131.494 101.317 130.685 101.174 129 101z"/>
<path style="fill:#c46f7a; stroke:none;" d="M133 101C134.248 101.685 134.548 101.749 136 102C134.752 101.315 134.452 101.251 133 101z"/>
<path style="fill:#edc2c6; stroke:none;" d="M136 101C137.223 102.195 137.42 102.316 139 103C137.777 101.805 137.58 101.684 136 101z"/>
<path style="fill:#d9a2aa; stroke:none;" d="M167 101C168.248 101.685 168.548 101.749 170 102C168.752 101.315 168.452 101.251 167 101z"/>
<path style="fill:#9e333d; stroke:none;" d="M167 102C169.756 103.077 172.107 102.532 175 102C172.244 100.923 169.893 101.468 167 102z"/>
<path style="fill:#c66580; stroke:none;" d="M175 101C176.248 101.685 176.548 101.749 178 102C176.752 101.315 176.452 101.251 175 101z"/>
<path style="fill:#f7d3ea; stroke:none;" d="M178.667 101.333C178.222 101.778 179.278 101.722 179.333 101.667C179.778 101.222 178.722 101.278 178.667 101.333z"/>
<path style="fill:#e797aa; stroke:none;" d="M123 104L126 103C124.222 102.045 123.979 102.234 123 104z"/>
<path style="fill:#a11e2e; stroke:none;" d="M126 102C130.242 103.784 134.685 103.831 139 106C136.253 101.018 131.092 102 126 102z"/>
<path style="fill:#d49db1; stroke:none;" d="M166 102L167 103L166 102z"/>
<path style="fill:#bd0524; stroke:none;" d="M164 111C170.358 112.5 172.624 119.071 179 120C179.811 114.53 184.403 109.876 180.066 104.434C175.415 98.5989 164.929 105.384 164 111z"/>
<path style="fill:#d982a5; stroke:none;" d="M178.667 102.333C178.222 102.778 179.278 102.722 179.333 102.667C179.778 102.222 178.722 102.278 178.667 102.333z"/>
<path style="fill:#f1b6d2; stroke:none;" d="M180 102L181 103L180 102z"/>
<path style="fill:#b90824; stroke:none;" d="M121 120C125.682 120 136.489 122.021 140.258 118.972C141.941 117.611 141.989 114.972 141.965 113C141.859 104.135 125.78 97.77 121.894 107.059C120.282 110.909 121 115.916 121 120z"/>
<path style="fill:#c47078; stroke:none;" d="M138 103L139 104L138 103z"/>
<path style="fill:#eeb2b5; stroke:none;" d="M139 103L140 104L139 103z"/>
<path style="fill:#c7849a; stroke:none;" d="M165 103L166 104L165 103z"/>
<path style="fill:#b20a22; stroke:none;" d="M165 120C167.355 117.087 171.506 119.752 175 120C172.601 115.17 169.492 111.748 164 111C165.26 106.811 168.605 106.212 171 103C163.387 103.576 157.934 115.007 165 120z"/>
<path style="fill:#d17292; stroke:none;" d="M180 103L181 104L180 103z"/>
<path style="fill:#f2b4cc; stroke:none;" d="M181 103L182 104L181 103z"/>
<path style="fill:#f8ced2; stroke:none;" d="M120 104L118 107C120.422 106.583 120.696 106.157 122 104L120 104z"/>
<path style="fill:#d27489; stroke:none;" d="M122 104L123 105L122 104z"/>
<path style="fill:#a5334b; stroke:none;" d="M139 104C139.684 105.58 139.805 105.777 141 107C140.316 105.42 140.195 105.223 139 104z"/>
<path style="fill:#c47b89; stroke:none;" d="M164 104L165 105L164 104z"/>
<path style="fill:#bd657b; stroke:none;" d="M181 104L182 105L181 104z"/>
<path style="fill:#d68088; stroke:none;" d="M121 105L122 106L121 105z"/>
<path style="fill:#cc848b; stroke:none;" d="M163 105L164 106L163 105z"/>
<path style="fill:#971220; stroke:none;" d="M181 105C181.438 107.743 181.779 109.325 184 111C183.469 108.31 182.884 106.98 181 105z"/>
<path style="fill:#be6e7e; stroke:none;" d="M182 105L183 106L182 105z"/>
<path style="fill:#9f3f43; stroke:none;" d="M121 106C120.014 107.479 120 107.203 120 109C121.289 107.557 121.401 107.766 121 106z"/>
<path style="fill:#b6536a; stroke:none;" d="M141.333 106.667C141.278 106.722 141.222 107.778 141.667 107.333C141.722 107.278 141.778 106.222 141.333 106.667z"/>
<path style="fill:#e4aaba; stroke:none;" d="M142.333 106.667C142.278 106.722 142.222 107.778 142.667 107.333C142.722 107.278 142.778 106.222 142.333 106.667z"/>
<path style="fill:#f3bbc0; stroke:none;" d="M161 106L161 108C162.635 107.455 162.455 107.635 163 106L161 106z"/>
<path style="fill:#b0646d; stroke:none;" d="M183.333 106.667C183.278 106.722 183.222 107.778 183.667 107.333C183.722 107.278 183.778 106.222 183.333 106.667z"/>
<path style="fill:#eabbc2; stroke:none;" d="M184.333 106.667C184.278 106.722 184.222 107.778 184.667 107.333C184.722 107.278 184.778 106.222 184.333 106.667z"/>
<path style="fill:#a62943; stroke:none;" d="M162 107C161.499 109.686 161.117 112.27 161 115C162.433 112.304 163.038 109.898 162 107z"/>
<path style="fill:#cc7b8a; stroke:none;" d="M119.333 108.667C119.278 108.722 119.222 109.778 119.667 109.333C119.722 109.278 119.778 108.222 119.333 108.667z"/>
<path style="fill:#cb5a73; stroke:none;" d="M142.333 108.667C142.278 108.722 142.222 109.778 142.667 109.333C142.722 109.278 142.778 108.222 142.333 108.667z"/>
<path style="fill:#f5b9c8; stroke:none;" d="M143.333 108.667C143.278 108.722 143.222 109.778 143.667 109.333C143.722 109.278 143.778 108.222 143.333 108.667z"/>
<path style="fill:#c86f81; stroke:none;" d="M161.333 108.667C161.278 108.722 161.222 109.778 161.667 109.333C161.722 109.278 161.778 108.222 161.333 108.667z"/>
<path style="fill:#b6656d; stroke:none;" d="M184.333 108.667C184.278 108.722 184.222 109.778 184.667 109.333C184.722 109.278 184.778 108.222 184.333 108.667z"/>
<path style="fill:#f4cfd5; stroke:none;" d="M185.333 108.667C185.278 108.722 185.222 109.778 185.667 109.333C185.722 109.278 185.778 108.222 185.333 108.667z"/>
<path style="fill:#dea8b9; stroke:none;" d="M118 109L118 115C118.951 112.715 118.951 111.285 118 109z"/>
<path style="fill:#9a1833; stroke:none;" d="M120 109L120 117C121.161 114.23 121.161 111.77 120 109z"/>
<path style="fill:#f2b3c0; stroke:none;" d="M160 109L160 117C161.161 114.23 161.161 111.77 160 109z"/>
<path style="fill:#ae4c61; stroke:none;" d="M119 110L119 116C119.951 113.715 119.951 112.285 119 110z"/>
<path style="fill:#a23447; stroke:none;" d="M142 110L142 115C142.83 112.969 142.83 112.03 142 110z"/>
<path style="fill:#ce949c; stroke:none;" d="M143 110L143 115C143.83 112.97 143.83 112.03 143 110z"/>
<path style="fill:#ab2d44; stroke:none;" d="M184 110L184 116C184.951 113.715 184.951 112.285 184 110z"/>
<path style="fill:#e3a7b3; stroke:none;" d="M185 110L185 115C185.83 112.97 185.83 112.03 185 110z"/>
<path style="fill:#a4112a; stroke:none;" d="M183 111C180.634 114.01 179.285 116.141 179 120C182.908 118.599 184.469 114.882 183 111z"/>
<path style="fill:#facdd7; stroke:none;" d="M118 115L118 118C118.696 116.446 118.696 116.554 118 115z"/>
<path style="fill:#bd6171; stroke:none;" d="M142 115L142 118C142.696 116.446 142.696 116.554 142 115z"/>
<path style="fill:#eec3c6; stroke:none;" d="M143 115L143 118C143.696 116.446 143.696 116.554 143 115z"/>
<path style="fill:#c46874; stroke:none;" d="M161 115L161 118C161.696 116.446 161.696 116.554 161 115z"/>
<path style="fill:#f4cfd8; stroke:none;" d="M185 115L185 118C185.696 116.446 185.696 116.554 185 115z"/>
<path style="fill:#df97a7; stroke:none;" d="M119.333 116.667C119.278 116.722 119.222 117.778 119.667 117.333C119.722 117.278 119.778 116.222 119.333 116.667z"/>
<path style="fill:#881e31; stroke:none;" d="M183 116L182 120C183.303 118.332 183.553 118.008 183 116z"/>
<path style="fill:#d28a97; stroke:none;" d="M184.333 116.667C184.278 116.722 184.222 117.778 184.667 117.333C184.722 117.278 184.778 116.222 184.333 116.667z"/>
<path style="fill:#c16275; stroke:none;" d="M120 117L120 120C120.696 118.446 120.696 118.554 120 117z"/>
<path style="fill:#c70522; stroke:none;" d="M165 117C165.654 120.054 167.007 119.936 170 120C168.283 118.16 167.434 117.651 165 117z"/>
<path style="fill:#f9d4de; stroke:none;" d="M119.333 118.667C119.278 118.722 119.222 119.778 119.667 119.333C119.722 119.278 119.778 118.222 119.333 118.667z"/>
<path style="fill:#d1778c; stroke:none;" d="M141.333 118.667C141.278 118.722 141.222 119.778 141.667 119.333C141.722 119.278 141.778 118.222 141.333 118.667z"/>
<path style="fill:#f7c8d4; stroke:none;" d="M142.333 118.667C142.278 118.722 142.222 119.778 142.667 119.333C142.722 119.278 142.778 118.222 142.333 118.667z"/>
<path style="fill:#f6ded9; stroke:none;" d="M161.333 118.667C161.278 118.722 161.222 119.778 161.667 119.333C161.722 119.278 161.778 118.222 161.333 118.667z"/>
<path style="fill:#be686f; stroke:none;" d="M162 118L163 119L162 118z"/>
<path style="fill:#f7cdd8; stroke:none;" d="M184.333 118.667C184.278 118.722 184.222 119.778 184.667 119.333C184.722 119.278 184.778 118.222 184.333 118.667z"/>
<path style="fill:#dc9c9f; stroke:none;" d="M162 119L163 120L162 119z"/>
<path style="fill:#cb8494; stroke:none;" d="M183 119L184 120L183 119z"/>
</svg>
