<?xml version="1.0" encoding="utf-8"?>
<!-- Generator: Adobe Illustrator 25.2.1, SVG Export Plug-In . SVG Version: 6.00 Build 0)  -->
<svg version="1.1" id="Capa_1" xmlns="http://www.w3.org/2000/svg" xmlns:xlink="http://www.w3.org/1999/xlink" x="0px" y="0px"
	 viewBox="0 0 1920 1080" style="enable-background:new 0 0 1920 1080;" xml:space="preserve">
<style type="text/css">
	.st0{fill:url(#SVGID_1_);}
	.st1{clip-path:url(#SVGID_3_);}
	.st2{fill:url(#SVGID_4_);}
	.st3{fill:url(#SVGID_5_);}
	.st4{fill:url(#SVGID_6_);}
	.st5{fill:url(#SVGID_7_);}
	.st6{fill:url(#SVGID_8_);}
	.st7{fill:url(#SVGID_9_);}
	.st8{fill:url(#SVGID_10_);}
	.st9{fill:url(#SVGID_11_);}
	.st10{fill:url(#SVGID_12_);}
	.st11{fill:url(#SVGID_13_);}
	.st12{fill:url(#SVGID_14_);}
	.st13{fill:url(#SVGID_15_);}
</style>
<linearGradient id="SVGID_1_" gradientUnits="userSpaceOnUse" x1="210" y1="1290" x2="1710" y2="-210">
	<stop  offset="0" style="stop-color:#DEEBF9"/>
	<stop  offset="1" style="stop-color:#AFDEF3"/>
</linearGradient>
<rect class="st0" width="1920" height="1080"/>
<g>
	<defs>
		<rect id="SVGID_2_" width="1920" height="1080"/>
	</defs>
	<clipPath id="SVGID_3_">
		<use xlink:href="#SVGID_2_"  style="overflow:visible;"/>
	</clipPath>
	<g class="st1">
		<g>
			<linearGradient id="SVGID_4_" gradientUnits="userSpaceOnUse" x1="1021.4349" y1="-46.3498" x2="2614.6853" y2="-46.3498">
				<stop  offset="0" style="stop-color:#00A4B5"/>
				<stop  offset="1" style="stop-color:#3557A3"/>
			</linearGradient>
			<path class="st2" d="M2596.89-137.83l-1.04-0.39c-23.73-8.9-62.2-8.9-85.93,0l-10.2,3.82c-23.73,8.9-62.2,8.9-85.93,0l-1.04-0.39
				c-23.73-8.9-62.2-8.9-85.93,0l-91.99,34.5c-24.01,9.01-62.95,9.01-86.96,0l0,0c-24.01-9.01-24.01-23.61,0-32.61l135.95-50.98
				c23.73-8.9,23.73-23.32,0-32.22l-1.04-0.39c-23.73-8.9-62.2-8.9-85.92,0l-299.19,112.2c-24.01,9.01-62.95,9.01-86.96,0l0,0
				c-24.01-9.01-24.01-23.61,0-32.61l299.19-112.2c23.73-8.9,23.73-23.32,0-32.22l-1.04-0.39c-23.73-8.9-62.2-8.9-85.92,0
				L1338.11-24.91c-24.01,9.01-24.01,23.61,0,32.61h0c24.01,9.01,24.01,23.61,0,32.61l-298.67,112c-24.01,9.01-24.01,23.61,0,32.61
				v0c24.01,9.01,62.95,9.01,86.96,0l298.67-112c24.01-9.01,62.95-9.01,86.96,0l0,0c24.01,9.01,24.01,23.61,0,32.61l-135.43,50.79
				c-24.01,9.01-24.01,23.61,0,32.61v0c24.01,9.01,62.95,9.01,86.96,0l91.47-34.3c24.01-9.01,62.95-9.01,86.96,0l0,0
				c24.01,9.01,62.95,9.01,86.96,0l9.17-3.44c24.01-9.01,62.95-9.01,86.96,0v0c24.01,9.01,62.95,9.01,86.96,0l684.82-256.81
				C2620.62-114.51,2620.62-128.94,2596.89-137.83z"/>
			<linearGradient id="SVGID_5_" gradientUnits="userSpaceOnUse" x1="754.9491" y1="-130.1194" x2="2169.0823" y2="-130.1194">
				<stop  offset="0" style="stop-color:#00A3CA"/>
				<stop  offset="1" style="stop-color:#3557A3"/>
			</linearGradient>
			<path class="st3" d="M1462.02-55.06L1462.02-55.06c23.48,8.81,23.48,23.08,0,31.89l-179.24,67.21
				c-23.48,8.81-23.48,23.08,0,31.89l0,0c23.48,8.81,23.48,23.08,0,31.89l-37.6,14.1c-23.48,8.81-23.48,23.08,0,31.89l0,0
				c23.48,8.81,61.55,8.81,85.04,0l604.42-226.66c23.48-8.81,23.48-23.08,0-31.89l0,0c-23.48-8.81-23.48-23.08,0-31.89l37.6-14.1
				c23.48-8.81,23.48-23.08,0-31.89v0c-23.48-8.81-23.48-23.08,0-31.89l179.24-67.21c23.48-8.81,23.48-23.08,0-31.89l0,0
				c-23.48-8.81-61.55-8.81-85.04,0l-100.58,37.72c-23.48,8.81-61.55,8.81-85.04,0h0c-23.48-8.81-61.55-8.81-85.04,0l-131.14,49.18
				c-23.48,8.81-61.55,8.81-85.04,0v0c-23.48-8.81-23.48-23.08,0-31.89l52.48-19.68c23.48-8.81,23.48-23.08,0-31.89l0,0
				c-23.48-8.81-23.48-23.08,0-31.89l106.96-40.11c23.48-8.81,23.48-23.08,0-31.89l0,0c-23.48-8.81-61.55-8.81-85.04,0
				l-106.96,40.11c-23.48,8.81-61.55,8.81-85.04,0l0,0c-23.48-8.81-61.55-8.81-85.04,0L772.56-147.28
				c-23.48,8.81-23.48,23.08,0,31.89l0,0c23.48,8.81,61.55,8.81,85.04,0l106.96-40.11c23.48-8.81,61.55-8.81,85.04,0l0,0
				c23.48,8.81,23.48,23.08,0,31.89L942.63-83.51c-23.48,8.81-23.48,23.08,0,31.89v0c23.48,8.81,23.48,23.08,0,31.89L890.15-0.05
				c-23.48,8.81-23.48,23.08,0,31.89l0,0c23.48,8.81,61.55,8.81,85.04,0l131.14-49.18c23.48-8.81,61.55-8.81,85.04,0h0
				c23.48,8.81,61.55,8.81,85.04,0l100.58-37.72C1400.46-63.86,1438.53-63.86,1462.02-55.06z"/>
			<linearGradient id="SVGID_6_" gradientUnits="userSpaceOnUse" x1="1708.7358" y1="195.6886" x2="1831.7205" y2="195.6886">
				<stop  offset="0" style="stop-color:#00B2CE"/>
				<stop  offset="1" style="stop-color:#3557A3"/>
			</linearGradient>
			<ellipse class="st4" cx="1770.23" cy="195.69" rx="61.49" ry="23.06"/>
			<linearGradient id="SVGID_7_" gradientUnits="userSpaceOnUse" x1="773.65" y1="60.2721" x2="896.6349" y2="60.2721">
				<stop  offset="0" style="stop-color:#00A3CA"/>
				<stop  offset="1" style="stop-color:#3557A3"/>
			</linearGradient>
			<ellipse class="st5" cx="835.14" cy="60.27" rx="61.49" ry="23.06"/>
		</g>
		<linearGradient id="SVGID_8_" gradientUnits="userSpaceOnUse" x1="-944.1072" y1="777.3619" x2="470.0259" y2="777.3619">
			<stop  offset="0" style="stop-color:#809ED3"/>
			<stop  offset="1" style="stop-color:#00A8B5"/>
		</linearGradient>
		<path class="st6" d="M-396.42,852.42L-396.42,852.42c23.48,8.81,23.48,23.08,0,31.89l-179.24,67.21
			c-23.48,8.81-23.48,23.08,0,31.89h0c23.48,8.81,23.48,23.08,0,31.89l-37.6,14.1c-23.48,8.81-23.48,23.08,0,31.89l0,0
			c23.48,8.81,61.55,8.81,85.04,0L76.19,834.64c23.48-8.81,23.48-23.08,0-31.89l0,0c-23.48-8.81-23.48-23.08,0-31.89l37.6-14.1
			c23.48-8.81,23.48-23.08,0-31.89v0c-23.48-8.81-23.48-23.08,0-31.89l179.24-67.21c23.48-8.81,23.48-23.08,0-31.89l0,0
			c-23.48-8.81-61.55-8.81-85.04,0L107.42,631.6c-23.48,8.81-61.55,8.81-85.04,0l0,0c-23.48-8.81-61.55-8.81-85.04,0l-131.14,49.18
			c-23.48,8.81-61.55,8.81-85.04,0l0,0c-23.48-8.81-23.48-23.08,0-31.89l52.48-19.68c23.48-8.81,23.48-23.08,0-31.89h0
			c-23.48-8.81-23.48-23.08,0-31.89l106.96-40.11c23.48-8.81,23.48-23.08,0-31.89v0c-23.48-8.81-61.55-8.81-85.04,0l-106.96,40.11
			c-23.48,8.81-61.55,8.81-85.04,0l0,0c-23.48-8.81-61.55-8.81-85.04,0l-604.42,226.66c-23.48,8.81-23.48,23.08,0,31.89l0,0
			c23.48,8.81,61.55,8.81,85.04,0l106.96-40.11c23.48-8.81,61.55-8.81,85.04,0h0c23.48,8.81,23.48,23.08,0,31.89l-106.96,40.11
			c-23.48,8.81-23.48,23.08,0,31.89l0,0c23.48,8.81,23.48,23.08,0,31.89l-52.48,19.68c-23.48,8.81-23.48,23.08,0,31.89l0,0
			c23.48,8.81,61.55,8.81,85.04,0l131.14-49.18c23.48-8.81,61.55-8.81,85.04,0l0,0c23.48,8.81,61.55,8.81,85.04,0l100.58-37.72
			C-457.97,843.62-419.9,843.62-396.42,852.42z"/>
		<linearGradient id="SVGID_9_" gradientUnits="userSpaceOnUse" x1="-22.5181" y1="1351.8624" x2="1225.9774" y2="1351.8624">
			<stop  offset="0" style="stop-color:#00A3CA"/>
			<stop  offset="0.9992" style="stop-color:#76CAE5"/>
		</linearGradient>
		<path class="st7" d="M39.3,1409.29l-43.81,16.43c-24.01,9.01-24.01,23.61,0,32.61h0c24.01,9.01,62.95,9.01,86.96,0l167.88-62.95
			c24.01-9.01,62.95-9.01,86.96,0l0,0c24.01,9.01,24.01,23.61,0,32.61l-167.88,62.95c-24.01,9.01-24.01,23.61,0,32.61l0,0
			c24.01,9.01,62.95,9.01,86.96,0l93.36-35.01c24.01-9.01,62.95-9.01,86.96,0l0,0c24.01,9.01,24.01,23.61,0,32.61L270,1583.66
			c-24.01,9.01-24.01,23.61,0,32.61h0c24.01,9.01,62.95,9.01,86.96,0l684.3-256.61c24.01-9.01,24.01-23.61,0-32.61l0,0
			c-24.01-9.01-24.01-23.61,0-32.61l166.7-62.51c24.01-9.01,24.01-23.61,0-32.61h0c-24.01-9.01-62.95-9.01-86.96,0l-93.36,35.01
			c-24.01,9.01-62.95,9.01-86.96,0l0,0c-24.01-9.01-24.01-23.61,0-32.61l167.88-62.95c24.01-9.01,24.01-23.61,0-32.61l0,0
			c-24.01-9.01-62.95-9.01-86.96,0l-167.88,62.95c-24.01,9.01-62.95,9.01-86.96,0l0,0c-24.01-9.01-24.01-23.61,0-32.61l43.81-16.43
			c24.01-9.01,24.01-23.61,0-32.61h0c-24.01-9.01-62.95-9.01-86.96,0L39.3,1344.06c-24.01,9.01-24.01,23.61,0,32.61v0
			C63.32,1385.68,63.32,1400.28,39.3,1409.29z"/>
		<linearGradient id="SVGID_10_" gradientUnits="userSpaceOnUse" x1="-257.5412" y1="1134.9827" x2="1011.6133" y2="1134.9827">
			<stop  offset="0" style="stop-color:#3557A3"/>
			<stop  offset="1" style="stop-color:#00B2CE"/>
		</linearGradient>
		<path class="st8" d="M72.32,1347.99l62.75-23.53c24.01-9.01,62.95-9.01,86.96,0l0,0c24.01,9.01,62.95,9.01,86.96,0l684.82-256.81
			c23.73-8.9,23.73-23.32,0-32.22l-1.04-0.39c-23.73-8.9-62.2-8.9-85.92,0l-63.27,23.73c-24.01,9.01-62.95,9.01-86.96,0l0,0
			c-24.01-9.01-24.01-23.61,0-32.61l18.18-6.82c23.73-8.9,23.73-23.32,0-32.22l-1.04-0.39c-23.73-8.9-23.73-23.32,0-32.22h0
			c23.73-8.9,23.73-23.32,0-32.22l-1.04-0.39c-23.73-8.9-62.2-8.9-85.92,0l-68.62,25.73c-23.73,8.9-62.2,8.9-85.92,0l-1.04-0.39
			c-23.73-8.9-62.2-8.9-85.92,0l-684.82,256.81c-24.01,9.01-24.01,23.61,0,32.61h0c24.01,9.01,62.95,9.01,86.96,0l68.62-25.73
			c23.44-8.79,61.44-8.79,84.88,0l2.08,0.78c23.44,8.79,23.44,23.04,0,31.83h0c-24.01,9.01-24.01,23.61,0,32.61l0,0
			c24.01,9.01,24.01,23.61,0,32.61l-17.66,6.62c-24.01,9.01-24.01,23.61,0,32.61h0C9.37,1357,48.3,1357,72.32,1347.99z"/>
		<linearGradient id="SVGID_11_" gradientUnits="userSpaceOnUse" x1="-1018.7743" y1="1082.6041" x2="562.8649" y2="1082.6041">
			<stop  offset="0" style="stop-color:#3557A3"/>
			<stop  offset="1" style="stop-color:#00A3CA"/>
		</linearGradient>
		<path class="st9" d="M-665.19,1146.43l-335.57,125.84c-24.01,9.01-24.01,23.61,0,32.61v0c24.01,9.01,62.95,9.01,86.96,0
			l133.7-50.14c24.01-9.01,62.95-9.01,86.96,0l0,0c24.01,9.01,24.01,23.61,0,32.61l-188.06,70.52c-24.01,9.01-24.01,23.61,0,32.61
			l0,0c24.01,9.01,62.95,9.01,86.96,0l38.93-14.6c24.01-9.01,62.95-9.01,86.96,0l0,0c24.01,9.01,62.95,9.01,86.96,0l82.76-31.03
			c24.01-9.01,62.95-9.01,86.96,0l2.1,0.79c22.85,8.57,22.85,22.46,0,31.03l0,0c-24.01,9.01-24.01,23.61,0,32.61l0,0
			c24.01,9.01,62.95,9.01,86.96,0l867.88-325.46c23.43-8.79,23.43-23.03,0-31.82l-2.1-0.79c-23.43-8.79-23.43-23.03,0-31.82l0,0
			c23.43-8.79,23.43-23.03,0-31.82l-2.1-0.79c-23.43-8.79-61.43-8.79-84.86,0l-84.86,31.82c-23.43,8.79-61.43,8.79-84.86,0
			l-2.1-0.79c-23.43-8.79-61.43-8.79-84.86,0l-39.98,14.99c-24.01,9.01-62.95,9.01-86.96,0l0,0c-24.01-9.01-24.01-23.61,0-32.61
			l189.11-70.92c23.43-8.79,23.43-23.03,0-31.82l-2.1-0.79c-23.43-8.79-61.43-8.79-84.86,0L39.99,947.21
			c-24.01,9.01-62.95,9.01-86.96,0l0,0c-24.01-9.01-24.01-23.61,0-32.61l336.63-126.23c23.43-8.79,23.43-23.03,0-31.82l-2.1-0.79
			c-23.43-8.79-61.43-8.79-84.86,0l-867.88,325.45c-24.01,9.01-24.01,23.61,0,32.61h0
			C-641.18,1122.83-641.18,1137.43-665.19,1146.43z"/>
		<linearGradient id="SVGID_12_" gradientUnits="userSpaceOnUse" x1="257.1713" y1="874.5895" x2="380.1559" y2="874.5895">
			<stop  offset="0" style="stop-color:#00B2CE"/>
			<stop  offset="1" style="stop-color:#3557A3"/>
		</linearGradient>
		<ellipse class="st10" cx="318.66" cy="874.59" rx="61.49" ry="23.06"/>
		<linearGradient id="SVGID_13_" gradientUnits="userSpaceOnUse" x1="18.5791" y1="597.6204" x2="141.564" y2="597.6204">
			<stop  offset="0" style="stop-color:#00A3CA"/>
			<stop  offset="1" style="stop-color:#3557A3"/>
		</linearGradient>
		<ellipse class="st11" cx="80.07" cy="597.62" rx="61.49" ry="23.06"/>
		
			<linearGradient id="SVGID_14_" gradientUnits="userSpaceOnUse" x1="1116.9127" y1="884.983" x2="1714.3816" y2="884.983" gradientTransform="matrix(0 1 1 0 215.145 -215.145)">
			<stop  offset="0" style="stop-color:#00A3CA"/>
			<stop  offset="1" style="stop-color:#3557A3"/>
		</linearGradient>
		<path class="st12" d="M856.17,1492.56l-1.04-0.39c-23.72-8.9-23.72-23.32,0-32.22l10.2-3.83c23.73-8.9,23.73-23.32,0-32.22
			l-1.04-0.39c-23.72-8.9-23.72-23.32,0.01-32.22l91.99-34.5c24.01-9.01,24.01-23.61,0-32.61l0,0c-24.01-9.01-62.95-9.01-86.96,0
			l-135.95,50.98c-23.73,8.9-62.19,8.9-85.92,0l-1.04-0.39c-23.73-8.9-23.72-23.32,0-32.22l299.19-112.2
			c24.01-9.01,24.01-23.61,0-32.61l0,0c-24.01-9.01-62.95-9.01-86.96,0l-299.19,112.2c-23.73,8.9-62.2,8.9-85.92,0l-1.04-0.39
			c-23.73-8.9-23.72-23.32,0-32.22l684.82-256.81c24.01-9.01,62.95-9.01,86.96,0v0c24.01,9.01,62.95,9.01,86.96,0l298.67-112
			c24.01-9.01,62.95-9.01,86.96,0l0,0c24.01,9.01,24.01,23.61,0,32.61l-298.67,112c-24.01,9.01-24.01,23.61,0,32.61l0,0
			c24.01,9.01,62.95,9.01,86.96,0l135.43-50.79c24.01-9.01,62.95-9.01,86.96,0h0c24.01,9.01,24.01,23.61,0,32.61l-91.47,34.3
			c-24.01,9.01-24.01,23.61,0,32.61l0,0c24.01,9.01,24.01,23.61,0,32.61l-9.17,3.44c-24.01,9.01-24.01,23.61,0,32.61h0
			c24.01,9.01,24.01,23.61,0,32.61l-684.82,256.81C918.36,1501.46,879.9,1501.46,856.17,1492.56z"/>
		<linearGradient id="SVGID_15_" gradientUnits="userSpaceOnUse" x1="1233.6641" y1="991.985" x2="1356.6489" y2="991.985">
			<stop  offset="0" style="stop-color:#00B2CE"/>
			<stop  offset="1" style="stop-color:#3557A3"/>
		</linearGradient>
		<ellipse class="st13" cx="1295.16" cy="991.99" rx="61.49" ry="23.06"/>
	</g>
</g>
</svg>
