<svg width="519" height="524" viewBox="0 0 519 524" fill="none" xmlns="http://www.w3.org/2000/svg">
<g opacity="0.5">
<path d="M85.3751 461.936C85.3751 461.936 405.78 520.395 440.005 272.77C440.005 272.77 482.201 450.274 332.781 508.732C332.922 508.732 201.46 563.416 85.3751 461.936Z" fill="#009640"/>
<path d="M257.955 75.5222C342.815 50.2613 431.988 77.5063 480.419 142.159C542.634 225.249 529.459 359.102 438.223 439.095C442.162 430.578 491.905 320.34 426.737 190.987C369.679 82.152 273.614 78.329 257.955 75.5222Z" fill="#E30613"/>
<path d="M434.004 61.4399C434.004 61.4399 113.552 2.98174 78.999 250.848C78.999 250.848 36.8035 73.3929 186.223 14.9347C186.41 14.6927 318.107 -39.9908 434.004 61.4399Z" fill="#009FE3"/>
<path d="M261.377 447.854C176.517 473.163 87.3443 445.918 38.9132 381.218C-23.3018 298.128 -10.0805 164.322 81.1087 84.3296C77.1704 92.8467 27.4266 203.085 92.6421 332.39C149.325 441.273 245.718 445.047 261.377 447.854Z" fill="#F39200"/>
<path d="M197.803 240.492C193.549 238.636 189.428 236.469 185.472 234.008C182.147 231.934 179.222 229.243 176.846 226.071C174.666 223.003 173.529 219.277 173.611 215.473C173.594 212.803 174.088 210.155 175.064 207.682C175.987 205.243 177.486 203.081 179.424 201.391C181.604 199.525 184.122 198.127 186.832 197.278C190.171 196.214 193.653 195.708 197.146 195.778C201.902 195.704 206.641 196.356 211.211 197.713C215.017 198.813 218.732 200.221 222.323 201.923C225.511 203.52 228.23 204.924 230.434 206.279C231.839 207.284 233.438 207.961 235.122 208.263C236.014 208.312 236.889 207.999 237.56 207.392C238.236 206.646 238.705 205.727 238.92 204.73C239.301 203.144 239.537 201.523 239.623 199.891C239.623 198.004 239.623 195.681 239.623 192.922C239.623 190.164 239.623 188.422 239.623 186.777C239.57 185.395 239.413 184.02 239.154 182.663C239 181.813 238.748 180.984 238.404 180.195C237.919 179.297 237.302 178.48 236.576 177.776C234.877 176.321 232.982 175.131 230.95 174.243C227.81 172.686 224.547 171.407 221.198 170.42C217.326 169.231 213.378 168.325 209.383 167.71C197.439 165.807 185.238 166.582 173.611 169.984C166.814 171.935 160.447 175.221 154.857 179.663C149.458 184.143 145.101 189.815 142.105 196.262C138.831 203.512 137.227 211.445 137.416 219.442C137.247 226.165 138.363 232.858 140.698 239.137C142.712 244.458 145.616 249.372 149.278 253.655C152.802 257.656 156.84 261.141 161.28 264.011C164.609 266.14 168.031 268.028 171.454 269.818C181.326 260.023 191.888 250.997 203.054 242.815L197.803 240.492Z" fill="#009FE3"/>
<path d="M293.352 173.42C293.366 172.482 293.049 171.571 292.461 170.855C291.659 169.974 290.637 169.338 289.508 169.017C287.725 168.436 285.885 168.062 284.022 167.903C281.095 167.579 278.152 167.434 275.208 167.468C272.327 167.437 269.446 167.582 266.581 167.903C264.689 168.069 262.818 168.442 261.002 169.017C259.849 169.312 258.805 169.951 258.002 170.855C257.43 171.578 257.131 172.488 257.158 173.42V211.747C268.941 206.744 281.052 202.604 293.399 199.359L293.352 173.42Z" fill="#F39200"/>
<path d="M377.555 191.18C367.1 176.953 345.487 164.468 301.416 167.371L301.885 196.745H304.745C323.247 192.744 342.101 190.733 361.005 190.745C366.491 190.6 372.023 190.842 377.555 191.18Z" fill="#E30613"/>
<path d="M153.122 351.36C157.711 352.986 162.413 354.248 167.188 355.134C172.818 356.192 178.531 356.71 184.253 356.683C192.899 356.754 201.508 355.515 209.805 353.005C217.393 350.76 224.491 347.03 230.715 342.02C236.661 337.115 241.467 330.897 244.78 323.824C248.421 315.892 250.219 307.193 250.031 298.418C250.182 291.801 249.05 285.22 246.703 279.061C244.66 273.846 241.74 269.046 238.076 264.882C234.68 261.144 230.818 257.889 226.59 255.204C214.99 262.742 204.014 271.256 193.771 280.658C196.162 281.916 198.459 283.223 200.475 284.529C203.77 286.646 206.675 289.35 209.055 292.514C211.287 295.594 212.444 299.364 212.337 303.209C212.357 306.538 211.703 309.835 210.415 312.887C209.164 315.773 207.249 318.298 204.835 320.243C202.204 322.362 199.192 323.925 195.974 324.84C192.138 325.998 188.155 326.553 184.16 326.486C178.206 326.584 172.27 325.801 166.531 324.163C163.484 323.195 160.718 322.227 158.139 321.163C152.444 329.235 147.2 337.637 142.433 346.327L142.902 346.617C146.16 348.518 149.582 350.106 153.122 351.36Z" fill="#009FE3"/>
<path d="M258.002 349.182C258.799 350.069 259.823 350.707 260.955 351.021C262.76 351.578 264.613 351.951 266.488 352.134C272.319 352.715 278.191 352.715 284.022 352.134C285.882 351.952 287.72 351.579 289.508 351.021C290.63 350.682 291.648 350.049 292.461 349.182C293.042 348.462 293.358 347.554 293.352 346.617V224.426C280.96 227.989 268.858 232.552 257.158 238.073V346.617C257.139 347.548 257.438 348.456 258.002 349.182Z" fill="#009640"/>
<path d="M347.831 215.135C348.901 218.09 349.441 221.222 349.425 224.378C349.425 224.378 356.27 266.818 301.838 259.317V287.627C301.838 287.627 386.885 303.015 386.885 226.894C387.282 223.341 387.282 219.752 386.885 216.199C378.226 215.267 369.525 214.799 360.818 214.796C356.505 214.796 352.144 214.941 347.831 215.135Z" fill="#E30613"/>
<path d="M85.3751 461.936C124.5 496.834 173.328 518.045 224.855 522.524C224.855 522.524 302.448 530.315 356.927 497.166C356.927 497.166 403.811 473.696 424.58 426.32C437.638 399.67 444.721 370.329 445.303 340.471C446.459 317.752 444.725 294.975 440.146 272.722C440.146 272.722 437.52 617.034 85.3751 461.936Z" fill="#007632"/>
<path d="M434.004 61.4399C394.91 26.5904 346.136 5.39975 294.665 0.900867C294.665 0.900867 217.072 -6.93872 162.593 26.2102C162.593 26.2102 115.709 49.6805 94.9395 97.0568C81.801 123.754 74.6543 153.162 74.0293 183.099C72.8073 205.809 74.4781 228.587 78.999 250.848C78.999 250.848 81.812 -93.6097 434.004 61.4399Z" fill="#007CB0"/>
<path d="M438.223 439.095C438.223 439.095 512.112 379.33 518.207 279.884C520.536 253.47 517.721 226.842 509.926 201.568C502.132 176.295 489.517 152.886 472.824 132.722C444.888 101.262 408.002 79.7603 367.476 71.312C331.206 63.1895 293.538 64.6375 257.955 75.5222C257.955 75.5222 624.446 79.5388 438.223 439.095Z" fill="#AE0F0A"/>
<path d="M80.7804 84.3296C80.7804 84.3296 6.89138 144.094 0.796468 243.493C-1.53875 269.914 1.27369 296.552 9.06805 321.834C16.8624 347.116 29.481 370.533 46.1801 390.703C74.1407 422.181 111.061 443.684 151.622 452.113C187.891 460.235 225.559 458.787 261.143 447.903C261.143 447.903 -105.442 443.886 80.7804 84.3296Z" fill="#BA7300"/>
<path d="M284.022 352.134C284.022 352.134 292.227 352.666 293.399 346.617V224.426L285.851 226.894V345.843C285.851 345.843 287.632 350.682 272.676 352.327H284.069" fill="#007632"/>
<path d="M293.352 199.31V173.42C293.352 173.42 293.68 170.71 289.508 169.017C289.508 169.017 283.694 167.662 282.944 167.662C282.944 167.662 290.164 169.5 289.086 172.501V200.568L293.352 199.31Z" fill="#BA7300"/>
<path d="M142.573 346.472C161.492 355.947 182.873 358.85 203.523 354.747C203.523 354.747 229.731 349.908 241.78 329.196C241.78 329.196 257.627 302.87 244.64 274.561C239.789 266.97 233.584 260.401 226.355 255.204L220.588 259.365C220.588 259.365 237.888 269.044 240.795 286.901C240.795 286.901 253.548 314.242 222.042 339.794C222.042 339.794 212.899 350.972 182.331 352.473C182.519 352.473 153.591 352.085 142.573 346.472Z" fill="#007CB0"/>
<path d="M301.838 287.627C301.838 287.627 339.345 294.16 363.725 277.271C369.282 273.584 374.045 268.755 377.715 263.085C381.385 257.415 383.884 251.026 385.057 244.315C385.057 244.315 388.573 223.506 386.932 216.199C384.74 215.758 382.506 215.58 380.275 215.667C380.275 215.667 388.433 266.963 346.378 278.577C346.378 278.577 331.984 287.046 301.885 283.126L301.838 287.627Z" fill="#AE0F0A"/>
<path d="M377.555 191.18C371.018 182.737 362.26 176.419 352.332 172.985C343.023 169.591 333.27 167.666 323.405 167.274C316.08 166.865 308.74 166.865 301.416 167.274V174.146C301.416 174.146 350.082 166.355 377.555 191.18Z" fill="#AE0F0A"/>
<path d="M202.585 242.718C202.585 242.718 180.221 234.637 175.205 223.603C174.132 221.333 173.514 218.863 173.388 216.341C173.262 213.819 173.63 211.296 174.471 208.924C175.311 206.552 176.607 204.38 178.279 202.537C179.952 200.693 181.968 199.217 184.206 198.197C184.206 198.197 193.255 193.068 210.977 197.713C217.712 199.711 224.172 202.59 230.2 206.279C230.2 206.279 236.81 211.699 238.779 204.73C238.779 204.73 239.201 202.698 239.483 199.891C239.483 199.891 237.701 206.085 235.826 203.085C235.826 203.085 218.432 192.535 204.413 191.471C201.741 191.471 169.86 187.793 170.282 215.28C170.166 218.889 170.835 222.479 172.238 225.786C173.642 229.094 175.745 232.035 178.393 234.395C184.585 239.227 191.597 242.821 199.069 244.993L202.585 242.718Z" fill="#007CB0"/>
</g>
</svg>
