<svg xmlns="http://www.w3.org/2000/svg" viewBox="0 0 300.36 300"><defs><style>.cls-1{fill:#f5e5c1;}.cls-2{fill:none;}.cls-3{fill:#613a15;}.cls-4{fill:#603a15;}.cls-5{fill:#fff;}.cls-6{fill:#633915;}.cls-7{fill:#5c3715;}</style></defs><g id="Fondo"><rect class="cls-1" width="300.36" height="300"/></g><g id="Taza_Café" data-name="Taza Café"><path class="cls-2" d="M202,165.93c2.2-3.8,3.74-9.68-1.12-12.1l-.06,0a6.87,6.87,0,0,0-8.06,1.79,12.25,12.25,0,0,1-5.37,3.51c-1,7-2.89,14.76-6.22,20.58a35.78,35.78,0,0,0,9.79-3.55A28.19,28.19,0,0,0,202,165.93Z" transform="translate(0.18 0)"/><path class="cls-3" d="M210.43,188.91H89.57a1.25,1.25,0,0,0-.9,2.11c3.45,3.65,11.73,10.78,23.85,11a1.26,1.26,0,0,1,.86.36l3.33,3.33a1.22,1.22,0,0,0,.88.37h64.82a1.22,1.22,0,0,0,.88-.37l3.33-3.33a1.26,1.26,0,0,1,.86-.36c12.12-.19,20.4-7.32,23.86-11A1.25,1.25,0,0,0,210.43,188.91Zm-36.37,12.76-24.06.07-24.06-.07L115,201.58l10.94-.08,24.06-.08,24.06.08,10.94.08ZM150,191.56l-59.1-.16,59.1-.15,59.1.15Z" transform="translate(0.18 0)"/><path class="cls-4" d="M177.58,184.52a43.39,43.39,0,0,0,13.81-3.09A36.13,36.13,0,0,0,205,171.66c3.42-4,6.05-9.48,5.32-14.89s-5.07-9.19-10.24-10.49a32,32,0,0,0-11.5-.38c.06-1.78.08-3.21.08-4.15a1.23,1.23,0,0,0-1.24-1.24H112.6a1.23,1.23,0,0,0-1.24,1.24c0,7.46,1,46,20.36,47.16h36.56A13.93,13.93,0,0,0,177.58,184.52Zm19.87-32.79a7.42,7.42,0,0,1,8,6.2c.6,4-1.47,8.1-3.82,11.19a30.32,30.32,0,0,1-9.29,7.9,32.86,32.86,0,0,1-10.77,3.86,36.08,36.08,0,0,0,17.91-10,20,20,0,0,0,5.42-10c.62-3.76-1.09-7.33-4.9-8.41a8,8,0,0,0-6,.77,25.11,25.11,0,0,0-3.75,3C192.42,154.08,194.22,152,197.45,151.73Zm-10.08,7.38a12.25,12.25,0,0,0,5.37-3.51,6.87,6.87,0,0,1,8.06-1.79l.06,0c4.86,2.42,3.32,8.3,1.12,12.1a28.19,28.19,0,0,1-11,10.21,35.78,35.78,0,0,1-9.79,3.55C184.48,173.87,186.34,166.16,187.37,159.11Zm-68.92,5.37a102.1,102.1,0,0,1-2.57-18.17l3.77-.18c.51,12.63,1.61,25.53,7.15,37.07C122,178.27,120,171,118.45,164.48Z" transform="translate(0.18 0)"/><path class="cls-5" d="M200,152.43c3.81,1.08,5.52,4.65,4.9,8.41a20,20,0,0,1-5.42,10,36.08,36.08,0,0,1-17.91,10A32.86,32.86,0,0,0,192.36,177a30.32,30.32,0,0,0,9.29-7.9c2.35-3.09,4.42-7.2,3.82-11.19a7.42,7.42,0,0,0-8-6.2c-3.23.28-5,2.35-7.19,4.48a25.11,25.11,0,0,1,3.75-3A8,8,0,0,1,200,152.43Z" transform="translate(0.18 0)"/><path class="cls-5" d="M150,201.42l-24.06.08-10.94.08,10.94.09,24.06.07,24.06-.07,10.94-.09-10.94-.08Z" transform="translate(0.18 0)"/><path class="cls-5" d="M90.9,191.4l59.1.16,59.1-.16-59.1-.15Z" transform="translate(0.18 0)"/><path class="cls-5" d="M115.88,146.31a102.1,102.1,0,0,0,2.57,18.17C120,171,122,178.27,126.8,183.2c-5.54-11.54-6.64-24.44-7.15-37.07Z" transform="translate(0.18 0)"/><path class="cls-6" d="M135.93,82.66a11.59,11.59,0,0,1-.48,5.13,15.52,15.52,0,0,0-1.13,5.66A13.26,13.26,0,0,0,135.83,99a13.36,13.36,0,0,1,1.41,6.14c-.07,4-2.72,7.09-2.91,11a15.52,15.52,0,0,0,1.13,5.87,11.64,11.64,0,0,1,.47,5.14c-.67-4-3.43-7-3.64-11.14a13.84,13.84,0,0,1,1.28-6.27,12.28,12.28,0,0,0,1.05-4.7,13,13,0,0,0-1.21-5.42,13.36,13.36,0,0,1-1.1-6.11A12.6,12.6,0,0,1,134,88,15.66,15.66,0,0,0,135.93,82.66Z" transform="translate(0.18 0)"/><path class="cls-6" d="M151,72a19.06,19.06,0,0,1,.18,4.77c-.22,2.24-1,4.39-1.23,6.64a26.57,26.57,0,0,0,.21,6.11,36.65,36.65,0,0,0,1.77,6,23.3,23.3,0,0,1,.76,10.66,38,38,0,0,1-1.87,6.13,21.59,21.59,0,0,0-.94,6.34,37.9,37.9,0,0,0,1.12,8,19.14,19.14,0,0,1,0,6.09,29.4,29.4,0,0,0-1.41-5.46,43.38,43.38,0,0,1-2.16-5.55c-1.14-4.58-.5-8.94.81-13.38A22,22,0,0,0,148.69,98c-.45-2.19-1.34-4.25-1.67-6.47a23.56,23.56,0,0,1,.06-6.76,26,26,0,0,1,2.24-6.72A27.54,27.54,0,0,0,151,72Z" transform="translate(0.18 0)"/><path class="cls-6" d="M166.08,82.66a11.74,11.74,0,0,1-.49,5.13,15.52,15.52,0,0,0-1.13,5.66A13.27,13.27,0,0,0,166,99a13.48,13.48,0,0,1,1.4,6.14c-.07,4-2.72,7.09-2.9,11a15.32,15.32,0,0,0,1.12,5.87,11.8,11.8,0,0,1,.48,5.14c-.68-4-3.43-7-3.65-11.14a13.84,13.84,0,0,1,1.28-6.27,11.92,11.92,0,0,0,1-4.7,12.87,12.87,0,0,0-1.21-5.42,13.36,13.36,0,0,1-1.1-6.11A12.6,12.6,0,0,1,164.13,88,15.88,15.88,0,0,0,166.08,82.66Z" transform="translate(0.18 0)"/><path class="cls-7" d="M150,255.76A105.76,105.76,0,1,1,255.76,150,105.87,105.87,0,0,1,150,255.76Zm0-206.57A100.81,100.81,0,1,0,250.81,150,100.92,100.92,0,0,0,150,49.19Z" transform="translate(0.18 0)"/><path class="cls-3" d="M152.25,55A2.25,2.25,0,1,1,150,52.79,2.25,2.25,0,0,1,152.25,55Z" transform="translate(0.18 0)"/><path class="cls-3" d="M142.31,55.33a2.25,2.25,0,1,1-2.47-2A2.25,2.25,0,0,1,142.31,55.33Z" transform="translate(0.18 0)"/><path class="cls-3" d="M132.46,56.65a2.25,2.25,0,1,1-2.67-1.73A2.25,2.25,0,0,1,132.46,56.65Z" transform="translate(0.18 0)"/><path class="cls-3" d="M122.8,59a2.25,2.25,0,1,1-4.28,1.39A2.24,2.24,0,0,1,120,57.55,2.26,2.26,0,0,1,122.8,59Z" transform="translate(0.18 0)"/><path class="cls-3" d="M113.43,62.34a2.25,2.25,0,0,1-4.11,1.83,2.25,2.25,0,0,1,4.11-1.83Z" transform="translate(0.18 0)"/><path class="cls-3" d="M104.47,66.64a2.25,2.25,0,1,1-3.07-.83A2.25,2.25,0,0,1,104.47,66.64Z" transform="translate(0.18 0)"/><path class="cls-3" d="M96,71.85a2.25,2.25,0,1,1-3.14-.49A2.26,2.26,0,0,1,96,71.85Z" transform="translate(0.18 0)"/><path class="cls-3" d="M88.13,77.93A2.25,2.25,0,1,1,85,77.76,2.24,2.24,0,0,1,88.13,77.93Z" transform="translate(0.18 0)"/><path class="cls-3" d="M80.94,84.79a2.25,2.25,0,1,1-3.18.16A2.24,2.24,0,0,1,80.94,84.79Z" transform="translate(0.18 0)"/><path class="cls-3" d="M74.5,92.36a2.25,2.25,0,1,1-3.14.5A2.26,2.26,0,0,1,74.5,92.36Z" transform="translate(0.18 0)"/><path class="cls-3" d="M68.89,100.57a2.25,2.25,0,1,1-3.08.83A2.25,2.25,0,0,1,68.89,100.57Z" transform="translate(0.18 0)"/><path class="cls-3" d="M64.17,109.32a2.25,2.25,0,1,1-3,1.14A2.25,2.25,0,0,1,64.17,109.32Z" transform="translate(0.18 0)"/><path class="cls-3" d="M60.38,118.52A2.25,2.25,0,1,1,57.55,120,2.25,2.25,0,0,1,60.38,118.52Z" transform="translate(0.18 0)"/><path class="cls-3" d="M57.58,128.06a2.25,2.25,0,1,1-2.66,1.73A2.25,2.25,0,0,1,57.58,128.06Z" transform="translate(0.18 0)"/><path class="cls-3" d="M55.8,137.84a2.25,2.25,0,1,1-2.48,2A2.25,2.25,0,0,1,55.8,137.84Z" transform="translate(0.18 0)"/><circle class="cls-3" cx="55.22" cy="150" r="2.25"/><path class="cls-3" d="M55.33,157.69a2.25,2.25,0,1,1-2,2.47A2.25,2.25,0,0,1,55.33,157.69Z" transform="translate(0.18 0)"/><path class="cls-3" d="M56.65,167.54a2.25,2.25,0,1,1,.93,4.4,2.25,2.25,0,0,1-.93-4.4Z" transform="translate(0.18 0)"/><path class="cls-3" d="M59,177.21A2.25,2.25,0,1,1,57.55,180,2.25,2.25,0,0,1,59,177.21Z" transform="translate(0.18 0)"/><path class="cls-3" d="M62.34,186.57a2.25,2.25,0,0,1,1.83,4.11,2.25,2.25,0,1,1-1.83-4.11Z" transform="translate(0.18 0)"/><path class="cls-3" d="M66.64,195.53a2.25,2.25,0,1,1-.83,3.07A2.25,2.25,0,0,1,66.64,195.53Z" transform="translate(0.18 0)"/><path class="cls-3" d="M71.85,204a2.25,2.25,0,1,1-.49,3.14A2.26,2.26,0,0,1,71.85,204Z" transform="translate(0.18 0)"/><path class="cls-3" d="M77.93,211.87a2.25,2.25,0,1,1-.17,3.18A2.24,2.24,0,0,1,77.93,211.87Z" transform="translate(0.18 0)"/><path class="cls-3" d="M84.79,219.06a2.25,2.25,0,1,1,.16,3.18A2.24,2.24,0,0,1,84.79,219.06Z" transform="translate(0.18 0)"/><path class="cls-3" d="M92.36,225.5a2.25,2.25,0,1,1,.5,3.14A2.26,2.26,0,0,1,92.36,225.5Z" transform="translate(0.18 0)"/><path class="cls-3" d="M100.57,231.11a2.25,2.25,0,1,1,.83,3.08A2.25,2.25,0,0,1,100.57,231.11Z" transform="translate(0.18 0)"/><path class="cls-3" d="M109.32,235.84a2.25,2.25,0,1,1,1.14,3A2.24,2.24,0,0,1,109.32,235.84Z" transform="translate(0.18 0)"/><path class="cls-3" d="M118.52,239.62a2.25,2.25,0,1,1,1.44,2.83A2.25,2.25,0,0,1,118.52,239.62Z" transform="translate(0.18 0)"/><path class="cls-3" d="M128.06,242.42a2.25,2.25,0,1,1,1.73,2.66A2.25,2.25,0,0,1,128.06,242.42Z" transform="translate(0.18 0)"/><path class="cls-3" d="M137.84,244.2a2.25,2.25,0,1,1,2,2.48A2.25,2.25,0,0,1,137.84,244.2Z" transform="translate(0.18 0)"/><circle class="cls-3" cx="150.18" cy="244.96" r="2.25"/><path class="cls-3" d="M157.69,244.67a2.25,2.25,0,1,1,2.47,2A2.25,2.25,0,0,1,157.69,244.67Z" transform="translate(0.18 0)"/><path class="cls-3" d="M167.54,243.35a2.25,2.25,0,1,1,2.67,1.73A2.25,2.25,0,0,1,167.54,243.35Z" transform="translate(0.18 0)"/><path class="cls-3" d="M177.21,241a2.25,2.25,0,1,1,2.83,1.44A2.25,2.25,0,0,1,177.21,241Z" transform="translate(0.18 0)"/><path class="cls-3" d="M186.57,237.66a2.25,2.25,0,1,1,3,1.14A2.23,2.23,0,0,1,186.57,237.66Z" transform="translate(0.18 0)"/><path class="cls-3" d="M195.53,233.36a2.25,2.25,0,1,1,3.07.83A2.25,2.25,0,0,1,195.53,233.36Z" transform="translate(0.18 0)"/><path class="cls-3" d="M204,228.15a2.25,2.25,0,1,1,3.14.49A2.26,2.26,0,0,1,204,228.15Z" transform="translate(0.18 0)"/><path class="cls-3" d="M211.87,222.07a2.25,2.25,0,1,1,3.18.17A2.24,2.24,0,0,1,211.87,222.07Z" transform="translate(0.18 0)"/><path class="cls-3" d="M219.06,215.21a2.25,2.25,0,1,1,3.18-.16A2.24,2.24,0,0,1,219.06,215.21Z" transform="translate(0.18 0)"/><path class="cls-3" d="M225.5,207.64a2.25,2.25,0,1,1,3.14-.5A2.26,2.26,0,0,1,225.5,207.64Z" transform="translate(0.18 0)"/><path class="cls-3" d="M231.11,199.43a2.25,2.25,0,1,1,3.08-.83A2.25,2.25,0,0,1,231.11,199.43Z" transform="translate(0.18 0)"/><path class="cls-3" d="M235.84,190.68a2.25,2.25,0,1,1,3-1.14A2.24,2.24,0,0,1,235.84,190.68Z" transform="translate(0.18 0)"/><path class="cls-3" d="M239.62,181.48a2.25,2.25,0,1,1,2.83-1.44A2.25,2.25,0,0,1,239.62,181.48Z" transform="translate(0.18 0)"/><path class="cls-3" d="M242.42,171.94a2.25,2.25,0,1,1,2.66-1.73A2.25,2.25,0,0,1,242.42,171.94Z" transform="translate(0.18 0)"/><path class="cls-3" d="M244.2,162.16a2.25,2.25,0,1,1,2.48-2A2.25,2.25,0,0,1,244.2,162.16Z" transform="translate(0.18 0)"/><circle class="cls-3" cx="245.14" cy="150" r="2.25"/><path class="cls-3" d="M244.67,142.31a2.25,2.25,0,1,1,2-2.47A2.25,2.25,0,0,1,244.67,142.31Z" transform="translate(0.18 0)"/><path class="cls-3" d="M243.35,132.46a2.25,2.25,0,1,1,1.73-2.67A2.25,2.25,0,0,1,243.35,132.46Z" transform="translate(0.18 0)"/><path class="cls-3" d="M241,122.8a2.25,2.25,0,1,1-1.39-4.28,2.24,2.24,0,0,1,2.83,1.44A2.26,2.26,0,0,1,241,122.8Z" transform="translate(0.18 0)"/><path class="cls-3" d="M237.66,113.43a2.25,2.25,0,1,1,1.14-3A2.23,2.23,0,0,1,237.66,113.43Z" transform="translate(0.18 0)"/><path class="cls-3" d="M233.36,104.47a2.25,2.25,0,1,1,.83-3.07A2.25,2.25,0,0,1,233.36,104.47Z" transform="translate(0.18 0)"/><path class="cls-3" d="M228.15,96a2.25,2.25,0,1,1,.49-3.14A2.26,2.26,0,0,1,228.15,96Z" transform="translate(0.18 0)"/><path class="cls-3" d="M222.07,88.13a2.25,2.25,0,1,1,.17-3.18A2.24,2.24,0,0,1,222.07,88.13Z" transform="translate(0.18 0)"/><path class="cls-3" d="M215.21,80.94a2.25,2.25,0,1,1-.16-3.18A2.24,2.24,0,0,1,215.21,80.94Z" transform="translate(0.18 0)"/><path class="cls-3" d="M207.64,74.5a2.25,2.25,0,1,1-.5-3.14A2.26,2.26,0,0,1,207.64,74.5Z" transform="translate(0.18 0)"/><path class="cls-3" d="M199.43,68.89a2.25,2.25,0,1,1-.83-3.08A2.25,2.25,0,0,1,199.43,68.89Z" transform="translate(0.18 0)"/><path class="cls-3" d="M190.68,64.17a2.25,2.25,0,1,1-1.14-3A2.25,2.25,0,0,1,190.68,64.17Z" transform="translate(0.18 0)"/><path class="cls-3" d="M181.48,60.38A2.25,2.25,0,1,1,180,57.55,2.25,2.25,0,0,1,181.48,60.38Z" transform="translate(0.18 0)"/><path class="cls-3" d="M171.94,57.58a2.25,2.25,0,1,1-1.73-2.66A2.25,2.25,0,0,1,171.94,57.58Z" transform="translate(0.18 0)"/><path class="cls-3" d="M162.16,55.8a2.25,2.25,0,1,1-2-2.48A2.25,2.25,0,0,1,162.16,55.8Z" transform="translate(0.18 0)"/></g></svg>